<?xml version="1.0" encoding="utf-8"?>
<!-- Generator: Adobe Illustrator 25.0.0, SVG Export Plug-In . SVG Version: 6.00 Build 0)  -->
<svg version="1.1" id="Capa_1" xmlns="http://www.w3.org/2000/svg" xmlns:xlink="http://www.w3.org/1999/xlink" x="0px" y="0px"
	 viewBox="0 0 490 630" style="enable-background:new 0 0 490 630;" xml:space="preserve">
<style type="text/css">
	.st0{fill:#7D5649;}
	.st1{fill:none;stroke:#000000;stroke-miterlimit:10;}
	.st2{fill:#D8CCC2;}
	.st3{fill:#FDF9EB;}
	.st4{fill:none;stroke:#BEABA4;stroke-miterlimit:10;}
	.st5{fill:#EFE1D8;}
	.st6{fill:#F7F3EB;stroke:#BEABA4;stroke-miterlimit:10;}
	.st7{fill:#F3EEE4;}
	.st8{fill:#F7F2E8;}
	.st9{fill:#E5E2D5;}
	.st10{fill:#E5E2D5;stroke:#BEABA4;stroke-miterlimit:10;}
	.st11{fill:#FAF5F0;}
	.st12{fill:#847467;}
	.st13{fill:#BEABA4;}
	.st14{fill:#BFB2AF;}
	.st15{fill:#FFFFFF;}
	.st16{fill:#F7F3EB;}
</style>
<g>
	<path class="st0" d="M192.5,514.5c0,1-1,6-1,7s0,4,0,4v12l1,5c0,0,1,6,0,6s-1,2-1,2s1,4,1,5s1,0,2,0s1,3,1,3s2,2,2,3s1,4,1,5
		s0,2,1,4s0,5,0,5s-1,4-1,6s-1,3-2,4s-2,2-4,4s-2,0-3-1s-2-1-2-2s-1-4-2-5s0-3,0-4s0-7,0-8s1-5,1-5s-1-2-1-3s1-3,1-3l2-1
		c0,0,2-1,2-3s0-2,0-3s-1-1-2-1s-2,0-2,0v-7v-10l1-16c0,0-2-6-2-7s-2-8-2-10s-3-11-3-11l-1-13c0,0-1-12-2-13s-2-11-2-11s-3-8-3-9
		s-3-9-3-10s-4-12-4-13s-2-4-2-5s-2-4-2-5s0-6,0-6s2-4,3-5s4-5,5-8s4-5,7-8s5-9,7-12s6-6,9-9s6-7,8-10s4-6,6-8s4-4,5-6s3-7,3-7
		s-4,5-5,7s-6,3-7,4s-9,9-9,9l-13,15l-9,10c0,0-8,13-9,14s-5,7-6,10s-1,10-1,10s2,6,3,8s4,7,4,8s2,9,2,9v5.67l1-1.67l1,8l4,14l3,19
		v10l2,12l4,12c0,0,2,8,2,10s1,16,1,16s1,14,1,15s-1,15-1,15s0,4,0,6s1,6,1,7s2,5,2,5l-1,4l-2,4c0,0-1,6,0,6s3,6,3,6l3,4
		c0,0,3,5,5,3s6-5,7-6s4-5,4-6s0-2,0-4s1-4,1-6s-1-5-1-6s1-4,1-4s0-2,0-4s-2-7-1-9s1-7,1-7l-2-5c0,0-2-3-3-5s-2-5-3-7s-2-5-3-9
		s0-23,1-25c0.23-0.46,0.57-1.41,0.95-2.6c-0.82,0.34-1.59,0.6-1.95,0.6C193.5,510.5,192.5,513.5,192.5,514.5z M203.5,587.5
		c1,0,0,2,0,2s-1,1-2,1s-1,1-1,2s0,2,0,2v2c0,0,0,3,0,5s-1,2-2,4s-2,2-5,2s-2-1-4-2s0-1-1-2s-1-3-1-4s0-2,0-3s-1-3-1-3v-1l2,1
		c0,0,2,0,5,0s1-1,3-2s2-2,2-2l1-1l1-1C200.5,587.5,202.5,587.5,203.5,587.5z"/>
	<path class="st0" d="M466.5,281.5c0-2,0-11,0-11l-0.46,1.84l-1.54,6.16c0,0-2,5-3,8s-2,5-2,9s-4,9-4,11s-2,6-2,6c0,1-2,6-3,10
		s-1,6-1,10s1,5,2,10s2,6,2,6s-2-2-3-3s-2-3-3-5s-2-5-3-8s0-4,0-6s0-2,0-5s0-4,0-5s0-5,0-6s-2-2-2-2s-1,1-2,3s-3,4-4,6s-3,5-3,5
		s-1,4-2,8s0,6,0,9s2,4,2,7s2,4,3,7s1,3,1,5s-1,2-2,5s-3,7-4,9s-3,8-3,8s-1,5-1,9s-1,7-1,9s-1-1-1-2s-2-3-2-6s-3-5-4-7s-4-7-5-8
		s-2-2-3-3s-3-8-3-8s-2-6-2-7s-1-9-1-10s0-4-1-6s0-6,0-7s3-6,3-6s2-10,3-12s2-3,3-5s2-5,3-7s1-9,1-9l-2-10c0,0-1-3-3-6s-1-2-2-5
		s0-3,0-5s1-4,1-4s2-5,3-7c0.78-1.56,0.95-6.77,0.99-8.98c-0.12,0.17-5,7-5.99,7.98c-0.36,0.36-0.84,1.1-1.32,1.96
		c0.18,0.86,0.32,1.67,0.32,2.04c0,1-2,11-2,11s0,7,1,8s3,11,3,11l1,9c0,0-4,13-5,15s-5,10-5,10l-2,9l-1,8l1,8c0,0,1,10,2,11
		s3,10,3,10s5,9,5,10s5,7,5,7l5,5l5,12l1,9l7,3c0,0,0-4,0-5s0-13,0-13s3-20,4-21s4-13,4-14s4-8,4-8s-5-8-5-9s-2-12-2-13s0-8,0-10
		s3-8,3-8s0,9,0,10s2,11,2,11l3,11l7,6l7,8c0,0-1-10-2-12s-3-15-2-17s4-22,4-22s0-8,1-9c0.79-0.79,3.42-7.74,5-11.17
		c0-2.11,0-4.06,0-4.83C465.5,284.5,466.5,283.5,466.5,281.5z"/>
	<path class="st0" d="M290.5,494.5l4,8c0,0,6,3,8,5s8,8,8,8l10,7l7,8l6,4l6,6l6,9l3,5c0,0-3,1-4-2s-8-9-9-10s-8-7-9-7s-9-4-9-4
		s-9-1-10-1s-6,0-8,0s-5,0-5,0s-3-5-3-6s-4-4-4-4l-9-3h-9c0,0-8,2-9,3s-8,4-8,4l-5,7c0,0-1,4-3,2s-10-7-10-7l-4-5l3-5l6-11
		c0,0,2-9,2-11s-6-9-6-9l-3-4l2-8c0,0-2-5-1-5s4,0,4-1s1-3,0-4s-2-3-2-5s2-14,2-14l1-5l-2-10l-1-12l-2-5l-2-8c0,0-4-9-4-10s-2-8-2-8
		l-3-9l-1-6v-19v-10c0,0,1-5,3-8s4-11,4-13s0-10,1-12s0-6,2-8s5-12,5-12l2-7l2-6l1-3l1-4l-5,7l-3,7c0,0-4,11-5,12s-5,9-5,9l1,9l-2,9
		l-3,9l-3,9c0,0,0,12-1,15s-1,15-1,17s2,8,3,10s6,13,6,14s3,9,4,11s2,9,2,11s3,20,3,20l-1,12v8c0,0-4-1-5-3s-3-3-4-4s-4,1-6-1
		s-4-2-4-2s-2-1-2,0s4,8,4,8s2,1,3,3s3,5,5,5s6-1,6,0s0,11,0,11l-1,5v6.55c0.65,0.38,1.46,0.91,2,1.45c1,1,3,3,3,4s1,4,1,5s-1,6-1,6
		s-3,6-4,7s-3,6-3,6l-3-3l-5-4h-3l-2,3c0,0,1,7,1,8s0,4,1,4s6,0,7,0s5,0,5,0l3,7l4,3l7,3l7,1l6-6c0,0,7-7,8-7s8-3,8-3l11-1l6,5l3,2
		v6l2,1l2-1l10-1l10,2l9,4l8,4c0,0,5,4,5,5s3,4,3,5s7,6,7,6l7,1c0,0,2-1,2-3s-2-5-2-6s-3-5-4-6s-7-8-7-8l-11-12l-9-8l-9-8
		c0,0-8-6-9-6c-0.71,0-3.91-3.5-5.73-5.55l-2.27-0.45L290.5,494.5z"/>
	<path class="st0" d="M294.5,368.5c1,1,2,6,4,8s7,7,7,7l11,3c0,0,7,4,7,5s4,1,5,2s3,2,3,2s-3-4-3-5s-5-5-3-4s8,5,8,5l4,4l-2,4
		c0,0,2,4,4,3s6-2,6-2s4,4,4,5s3,3,3,3l6,6l4,4c0,0,2-4,3-1s2,3,3,5s3,5,3,6s-2,4-3,5s-4,3-4,3s-6,0-7-1s-6-12-6-12l-4-15l-1-4l-4,2
		l-1,6c0,0-4,4-4,5s-1,3-1,3l6-2c0,0,1,1,2,3s2,5,3,6c0.45,0.45,0.9,2.54,1.26,4.69c1.46,1.39,3.14,2.71,3.74,3.31c1,1,6,7,6,7
		s6,1,7,0s8-3,9-5s4-7,4-7s0-9-1-10s-6-11-6-11l-8-9l-12-10l-17-5l-14-4c0,0-13-8-13-9s-8-7-8-9c0-0.63,0.2-1.75,0.47-3h-2.47
		C297.5,360.5,293.5,367.5,294.5,368.5z"/>
	<path class="st1" d="M415.5,248.5c0,0,0,0.4-0.01,1.02c0,0,0.01-0.02,0.01-0.02V248.5z"/>
	<path class="st0" d="M75.5,565.5l2-8l3-8l1-3v-5c0,0,2-4,2-5s1-5,2-6s2-7,2-7s0-4,1-5s3-8,3-8l1-5c0,0,2-6,2-7s3-6,3-7s1-6,1-6l1-6
		l2-7l2-4c0,0,4-10,4-11s3-5,3-5s2-8,2-9s7-9,7-9l3-9l4-7l2-3l4-9v-7l1-8l1-8l1-11v-7l2-14c0,0,3-10,4-12s6-17,6-19s5-14,5-14
		s1-7,2-9s5-10,6-11s7-11,7-11s3-7,3-9s0-9,1-11s3-8,4-10s2-7,2-7l3,2l7,4l5,4l9,6c0,0,5,4,6,5s8,5,8,5l9,3l10-1h6l3-3l-7,1l-8-1
		c0,0-7,1-8-1s-10-6-10-6s-6-7-7-7s-7-5-7-5l-7-4l-7-6l-3-7c0,0,2-6,3-8s5-11,5-11l1-9l-2-7l-3-6l3-9c0,0,4-6,5-8s3-9,3-9s1,0,1-7
		s-4-2-4-2l-5,4l-6,4l-6,3l-4,2l-5,2h-3l3-5l5-3l5-5l-9,4l-5,4l-2,4l-4,4l-6,2l-3,4l2,2l-1,4l-5,4l-2,2l-3-4l-4-3l3,4l1,3
		c0,0-1,0-2-1s-3-5-3-5l-4-3c0,0,2,4,2,5s2,3,2,4s-3,0-3,0s-4-5-5-5s-6-6-6-6l-4-1l6-3l2.06-2.88l-1.06-2.12c0,0,1-3,2-4s4-4,4-4
		l1-2l2.5-1l1.5-3l7-4l6-4l4-3l5-4l5-6l6-6l5-6l5-4l-7,3l-4,4l-8,6c0,0-3,4-4,5s-6,4-6,5s-5,4-5,4l-5,3l-2.67,1.33l-1.33,2.67l-4,4
		l-3,5l-5,6c0,0-6,5-7,5s-7,3-7,3l-4,1l4,2l2,3l1,4l2,5c0,0,3,5,4,7s2,3,3,4s1,2,1,2l0.43,1.71c0.14,0.07,0.57,0.29,0.57,0.29
		s5,0,6,0s4-1,4-2s-1-5,0-5s2-4,2-4l3-1c0,0,4-2,5-2s5-2,5-2s3-2,3-3s3-5,3-5l5-4l5-2c0,0,3-3,4-3s5-2,6-2s9-5,9-5s4-4,5-4s5-1,5-1
		l1,2c0,0-2,3-2,4s-2,5-3,6s-3,4-3,4l-1,4v5l-1,3c0,0-1,4,0,5s1,4,1,4v2l2,2v5c0,0-3,4-3,6s-2,5-3,7s-3,6-3,6l-1,6v4l2,2l-3,3l-3,5
		l-2,6l-1,4l-1,5c0,0-1,4-1,5s-1,3-1,4s0,2-1,3s-2,2-2,3s-3,3-3,3l-2,5l-4,5l-1,4l-1,4l-4,11l-3,9l-3,9c0,0-1,6-2,7s-3,4-4,5
		s-1,7-1,7s-2,4-2,5s-3,5-3,5s0,3,0,4s0,5,0,5v7l-1,11c0,0-3,13-3,14s-1,11-1,11s-3,7-4,9s-4,10-4,10s-3,7-4,8s-5,6-5,8s-4,8-4,10
		s-3,11-3,11l-5,12l-5,17l-3,16l-4,12l-5,15c0,0-2,8-2,9s-3,11-3,11l-1,7l-1,5v4v2l0.25,1l4.75-3.17V565.5z M128.5,196.5
		c0,1-2,2-2,3s-3-1-3-1l-2-4l-2-3l-3-3l-2-4l-2-4l-3-4l2-1l2,2c0,0,2,2,3,3s2,3,3,4s3,1,3,1s3,2,4,3s2,1,2,1s1,2,1,3
		S128.5,195.5,128.5,196.5z"/>
	<path class="st0" d="M289.5,422.5l3-3l-3-5l-7-5h-4l4,4l4,3c0,0-2,4-2,5s-1,3-3,6s-2,6-3,7s-4,4-3,4s3,0,4,1s3,4,4,6s1,5,2,8
		s2,7,3,8s3,2,4,3s4,4,6,4s5,1,7,1s9,1,9,1l4,1l1,4c0,0,0,5-1,7s-1,6-1,6v9c0,0,2,4,2,5s3,4,3,5s3,3,3,3s3,1,5,1s6,1,6,1l11,1l6,3
		l7,8l3,6c0,0,2,6,2,7s2,6,2,6s1,6,1,7s1,5,1,5s-3-2-4-3s-3-5-5-7s-6-4-6-6s-3-9-3-10s-3-8-3-8l-4-4l-1-2l-2.46,0.98
		c1.45,2.5,4.46,7.02,4.46,7.02l3,7l1,6c0,0,2,5,3,6s6,6,6,7s4,5,4,5s5,8,6,8s4,6,4,6s1-6,1-8s-2-14-2-15s-3-16-4-17s-7-11-8-12
		s-8-5-9-6s-8-2-9-2s-7,0-8-1s-9-6-9-6v-8l1-13l-1-8l-3-6l-8-2l-13-1c0,0-7-2-7-4s-4-11-4-12s-2-6-2-6l-3-6l3-8l0.62,0.62l0.38-2.62
		L289.5,422.5z"/>
	<path class="st2" d="M239.5,24.5c-1,1-3,1-3,1l-2-3h-2c0,0-2,2-3,3s-1,1-2,3s-1,4-1,7s1,8,1,9s1,4,1,6s0,4,2,7s3,7,5,8s9,5,9,5l5,5
		l7,4c0,0,4,1,6,2s11,1,11,1s8-2,9-3s3-2,4-4s3-5,3-6s0-5,0-6s-1-3-1-4s-2-3-2-3s-1,1-2,2s0,0-3,5s-4,6-4,6l-7,2h-7h-1l-5-3v-2
		c0,0,0,0,2,0s4,1,6,1s3,1,5,0s5-2,6-3s6-10,6-11s2-10,2-10l-1-9l-2-6l-2-7l-2-3l-3,1h-5l-5,1v3c0,0,0,3,1,4s2,2,2,2l3-1v-4l2-3l2,1
		v5l-3,6l-2,3h-4c0,0-4-1-4-3s-1-6-1-6s0-4,0-5s0-4,0-4l-3-3h-2c0,0-3,2-4,3s-3,3-4,3s-3,2-4,2s-3-1-3-1v-2c0,0-0.6,0.12-1.38,0.23
		l0.38,0.77C239.5,21.5,240.5,23.5,239.5,24.5z M235.5,41.5c1-1,2,1,2,1s1,2,1,3s-1,3-1,3h-1l-1-4C235.5,44.5,234.5,42.5,235.5,41.5
		z M239.5,62.5c0,0-1-1-2-2s-3-3-3-5s-1-2-1-4s-2-3-2-4s-1-2-1-2l1-2l2,3c0,0,1,2,2,4s3,4,3,6s2,5,2,5L239.5,62.5z M242.5,50.5
		c0,0,1,2,1,3s1,1,1,1l1-1l1-2v-1l2-1v2c0,0,0,4,0,5s1,2,1,2l2,3l4,3v3c0,0-1-1-1-2s-2,0-3-1s-2-2-2-2s-1-2-1-3s-1-2-2-2s-1-1-1-1v1
		l1,2c0,0,1,2,1,3s1,1,2,2s1,1,1,1s1,1,2,2s2,2,2,2s2,0,3,1s2,1,2,1l3,2c0,0,1,1,0,1s-5-1-6-1s-4-2-4-2s-2-2-3-2s-2-2-2-3s-2-2-2-2
		l-1-2l-2-4c0,0-2-3-2-4s-2-3-2-3l1-2h1L242.5,50.5z"/>
	<path class="st2" d="M373.5,180.5c0,0,3,2,4,3s2,0,5,0s3,0,4,1s2,0,3,1s2,0,3,0s3-2,4-2s2-1,2-1c2-1,2-2,3-3s1-3,2-5s3-2,5-2
		s-1,1-2,3s1,3,2,4s2-1,3-2s2-2,2-4s1-5,1-5l1,2c0,0,4,3,5,4s2,3,2,3s1,3,2,3s2,0,4-1s2,0,2,0s2,1,3,1s3,4,4,5s1,3,2,5s-2,0-4,0
		s-5-2-5-2s-5,0-6,0s-4,2-4,2s-4,3-5,5s1,1,2,2s2,3,1,4s0,0-2,1s-1,2-1,4s1,1,3,2s1,2,1,2s0,1-2,3s-1,3-1,6s0,2,2,4s1,1,1,0s1-1,2-4
		s1,1,1,2s0,3,0,3l4,6c0,0,2,4,4,5s2,0,3,0s2-2,2-4s-2-4-3-7s-2-3-2-4s1-1,2-2s2-3,3-5s2-1,3-2s2,0,3,0s1,0,2,1s2,2,2,2l5,4h2
		c0,0,0-1,1-2s0-1,1-2s1-1,2-2s2-2,2-2l0.38-1.92l-3.38-5.08l1-4l1-4l-3-4l-4-2c0,0-2,2-3,2s-5,3-5,3v-6c0,0-1-5-2-6s-5-6-5-6
		s-4-4-5-4s-5-1-5-1l-4-3l-4-4l-2-3l-5,2l-4,3l-6,6c0,0-3,3-4,4s-4,2-6,2s-4,0-5,0s-7-3-7-3h-6.96c0.3,0.89,0.63,1.67,0.96,2
		C373.5,178.5,373.5,180.5,373.5,180.5z M421.5,197.5c1-1,2-2,2-2s1-1,1-2s1-3,2-3s2,1,2,1l1,2c0,0-2,0-3,1s-1,3-1,3v3l-3-1
		C422.5,199.5,420.5,198.5,421.5,197.5z M428.5,218.5c0,0,0,1-1,1s0,1-1,1s0,0,0-1s-1-1-1-1s-1-2-2-3s1-1,1-1s1,1,2,1s1,1,2,1V218.5
		z M453.5,210.5c0,0-1,1-2,2s-1,0-3,0s-1-1-2-1s3-1,4-2s0-3-1-3l2-2c0,0,2,3,3,4S453.5,210.5,453.5,210.5z M445.5,199.5c1-1,4-3,4-3
		s0-2,1,0s1,2,1,3s-1,2-1,2h-2c0,0-1,1-2,0S444.5,200.5,445.5,199.5z M441.5,200.5c0,0,2,2,3,3s2,2,2,3s2,2-1,1s-4,0-5-1s-4-2-4-1
		s-3,1-3,1c0,1-2,0-3,2s-2,4-2,4s-2,1-2,0s-1-2,0-3s1,0,2-2s2-2,1-3s-1-2-1-3s0-3,1-3s3,2,5,1s2-2,3-2S441.5,200.5,441.5,200.5z"/>
	<path class="st2" d="M28.5,286.5l-3-2l-3-3l-1-1l2-1l2,1l-3-3v-2h2h2l-1-3l-1-3l3-1l1-2l-1-3c0,0-1-2,0-2s5,1,5,1l1.39-0.28
		c-0.67-0.87-1.74-1.72-2.39-1.72c-1,0-3-2-3-2h-2l-1,1v2v1v2v1c0,0,1,1,0,1s-2,1-2,1l-1,1v1v2v1h-2c0,0-1,0-1,1s0,2,0,2v1v1
		c0,0-1,0-1,1s0,3,0,3l2,2l2,3c0,0,2,1,3,1s4,2,4,2s5.46,0.68,7.92,0.92l-1.92-1.92L28.5,286.5z"/>
	<path class="st3" d="M127.5,159.5c0,0-3,3-4,4s-2,4-2,4l1.06,2.12l2.94-4.12l4-6l1.5-3l-2.5,1L127.5,159.5z"/>
	<path class="st4" d="M84.5,270.5c0,1-3,4-4,4s-3,4-3,4s-5,4-6,4s-3,0-4,0s-6,2-6,2h-5l-6,1l-7,2l-5-2v-2l2-3c0,0,3,1,4,0s1-3,1-3
		s-1-1-2-2s-4-3-4-3l-3-1l-4-3l-1-2h2c0,0,3,0,3,1s2,3,3,3s5,2,6,2s5,1,6,1s7-3,7-3s4-3,5-3s5-1,5-1l1,2c0,0,2,2,3,0s3-3,4-5
		s7-11,7-11l5-10l5-14l1-8c0,0,2-5,2-6s2-5,2-5l2-4l1-5l3-7l3-5l-3,2c0,0-2,6-3,6s-4,8-4,8s-1,3-1,4s-2,4-2,4s-2,1-2,3s0,5-1,6
		s-2,6-2,6l-2,5l-1,4l-2,5l-2,3l-1,4l-2,4l-3,5l-3,4l-1,2l-4,1l-4,1h-3l-4,2l-4,2c0,0-3,1-4,1s-5-2-5-2l-0.82-1.02
		c-1.68-0.05-3.46-0.25-4.18-0.98c-1-1-5-2-5-3c0-0.35-0.25-0.82-0.61-1.28l-1.39,0.28c0,0-4-1-5-1s0,2,0,2l1,3l-1,2l-3,1l1,3l1,3
		h-2h-2v2l3,3l-2-1l-2,1l1,1l3,3l3,2l7,2l1.92,1.92c0.52,0.05,0.91,0.08,1.08,0.08c1,0,8,1,9,1s13-1,13-1s7-2,8-2s5-3,7-3s8-7,8-7
		s5-4,5-5s3-5,3-5s0.43-0.86,0.96-1.98l-3.96,1.98C88.5,268.5,84.5,269.5,84.5,270.5z"/>
	<path class="st5" d="M118.5,199.5c-1-1-2-2-3-4s-4-7-4-7l-2-5l-1-4l-2-3l-4-2l4-1c0,0,6-3,7-3s7-5,7-5l5-6l3-5l4-4l1.33-2.67
		l-1.33,0.67l-3,4l-5,5l-3,5l-6,5l-4,2l-4,2l-4,1h-4l2,3c0,0,4,2,4,3s1,5,2,6s2,4,2,5s3,7,3,7l4,5c0,0,2.59,1.29,3.43,1.71
		l-0.43-1.71C119.5,201.5,119.5,200.5,118.5,199.5z"/>
	<path class="st0" d="M235.5,98.5l4,8l7,7l5,4c0,0-2,5-3,5s-1,1-3,4s0,3-1,5s-1,1-1,1s-2-3-4-4s0-2,0-2s0-4,0-5s-2-6-2-6s-1,5-2,6
		s0,5,0,6s3,6,3,6l3,2l-1.69,10.14l-0.31,1.86c0,0-4,6-4,8s0,10,0,10s0,9-1,12s-1,9-2,11s-2,3-3,4s-1,6-1,6s0,3,0,5s0,4-1,7
		s-1,7-2,8s-2,5-2,6s0,6,0,8s0,4,0,6s2,7,3,9s1,5,1,5l-1,2l-1,4l2,3l4-2c0,0,1-2,2-4s1-1,2-2s4-3,4-3l3-4v-5v-5v-13v-9c0,0,0-7,0-8
		s2-2,3-3s1-4,1-4v-7l1-7l1-6l-3,3l-1,6l-1,6v4l-3,5l-1,6c0,0-1,7-1,8s-1,7-1,9s0,13,0,13v6l-4,5l-2,1l-2-5c0,0-1-4-1-7s-1-8,0-10
		s4-11,4-12s1-14,1-14s-1-9,0-11s4-12,4-12s2-7,2-10s0-12,0-12l3-21c0,0,3-2,4-2s6-7,6-7s0,2,0,5s-1,7-1,9s1,4,1,4s3-4,3-5s-1-2,1-4
		s3-7,4-9s0-6,2-8s3-4,3-7s0-5,0-5l-2,2c0,0-3,3-3,5s-2,6-2,6l-3,5c0,0,0-7,0-8s0-5,0-5s3-2,4-3s6-5,6-5l1-1l3.07-3.51
		c-0.05-0.2-0.07-0.37-0.07-0.49c0-1,3-9,3-9l3-6c0,0,5-2,7-3s8-5,8-5s2-2,2-3s1-9,1-9v-5l-2-3l-2-4c0,0-2-1-2-2s2-9,2-10
		s-1-10-1-10l-1-5c0,0-3-6-3-7s-3-5-3-5l-2-5c0,0-4,0-4,1s-3,4-3,4l-4,1l-5-1l-3-3l-3-3h-3c0,0-3,3-4,4s-5,3-5,3l-3,3l-2,2v2
		c0,0,2,1,3,1s3-2,4-2s3-2,4-3s4-3,4-3h2l3,3c0,0,0,3,0,4s0,5,0,5s1,4,1,6s4,3,4,3h4l2-3l3-6v-5l-2-1l-2,3v4l-3,1c0,0-1-1-2-2
		s-1-4-1-4v-3l5-1h5l3-1l2,3l2,7l2,6l1,9c0,0-2,9-2,10s-5,10-6,11s-4,2-6,3s-3,0-5,0s-4-1-6-1s-2,0-2,0v2l5,3h1h7l7-2c0,0,1-1,4-6
		s2-4,3-5s2-2,2-2s2,2,2,3s1,3,1,4s0,5,0,6s-2,4-3,6s-3,3-4,4s-9,3-9,3s-9,0-11-1s-6-2-6-2l-7-4l-5-5c0,0-7-4-9-5s-3-5-5-8s-2-5-2-7
		s-1-5-1-6s-1-6-1-9s0-5,1-7s1-2,2-3s3-3,3-3h2l2,3c0,0,2,0,3-1s0-3,0-3l-0.38-0.77c-1.48,0.22-3.62,0.42-3.62-0.23c0-1-3-2-3-2
		l-4,1l-4,5l-2,5c0,0-1,5-1,6s1,4,1,6s1,8,1,8l3,6c0,0,1,3,1,4s0,6,0,6l2,3l3,1l1,2c0,0-1.26,1.89-1.78,3.17l0.78,15.83L235.5,98.5z
		 M236.5,76.5c0-1,1-4,1-4l2,2l5,5c0,0,5,3,7,5s2,2,2,2s4,0,5,0s4,0,5,0s2,1,2,1s0,1,0,2s0,2,2,3s0,2,0,3s-1,1-2,3s-1,2-2,3
		s-1,1-2,1s-1-2-1-4s-2,2-3,4s0,2,0,4s-1,0-2,0s-3,4-3,4l-3-1c0,0-2-2-3-3s-3-3-4-4s-2-4-2-4l-2-5c0,0,0-4,0-5s-2-6-2-6
		S236.5,77.5,236.5,76.5z"/>
	<path class="st0" d="M403.5,188.5c-1,0-4-1-4-1h-5c0,0-4,0-5,0s-4-1-6-1s-9-1-9-1s-4,0-5,0s-8,1-8,1l-6,1c0,0-5,3-6,3s-4,3-4,3
		s0,0,3-1s6-2,11-3s13-2,13-2s2,1,8,2s10,2,13,2s7,0,8,1s6,5,6,5s-2,7-2,9s-1,14-1,14l-3,11c0,0-6,13-7,14s-7,16-7,16l-5,12l-5,11
		l-5,10c0,0-2,5-3,6s-7,5-7,5l-7-1c0,0-8-1-9-2s-10-4-10-4s-8-4-9-4s-6-4-8-4s-9-1-10-2s-6-2-7-2s-8,1-9,1s-9,2-9,2l-3,1l-1,1l-2,1
		h9l6-2c0,0,3,0,4,0s4,0,4,1s0,10,0,10v5v4l-4,9c0,0,0,1-2,4s-3,5-3,5s0,4-1,5s-4,7-4,7l-5,6l-4,5l-8,6l-1,5c0,0,0,6,0,7s6-6,6-6
		l4-5c0,0,2-4,2-1s-1,2-1,5s0,5,0,5s-1-5-2-4s-2,2-2,3s4,10,4,10l3,9l1,6l3,1c0,0,2,3,3,4s2,2,2,2s-2,1-4,1s1,0-4,0s-7,1-9,1
		s-6-1-7,1s-3,6-3,6l-1,7c0,0,3,0,5-4s2-4,4-5s4-1,8,0s5,1,6,1c0,0,0.06,0,0.22,0c0.33,0,1.09,0,2.78,0c5,0,9,1,9-1s0-2,0-5s0-4-1-5
		s-5-4-6-6s-3-6-5-8s-5-7-5-9s0-6,1-10s4-10,5-12s1-4,5-7s6-8,6-8l3-9v-11l2-8v-12l2-3c0,0,6,1,7,1s6,3,8,4s9,3,9,3l10,3l8,2l6,2
		l4,2c0,0,7-1,7-2s7-6,7-6l4-9l5-7l4-8l3-9l3-8l5-12l5-11l4-9l3-6l2-12v-9l-2-10C408.5,191.5,404.5,188.5,403.5,188.5z"/>
	<path class="st6" d="M472.5,256.5c-1-2-5-10-5-10l-5-13c0,0-2-11-2-13s-1-11-1-11l-0.62-0.92l-0.38,1.92c0,0-1,1-2,2s-1,1-2,2
		s0,1-1,2s-1,2-1,2h-2l-5-4c0,0-1-1-2-2s-1-1-2-1s-2-1-3,0s-2,0-3,2s-2,4-3,5s-2,1-2,2s1,1,2,4s3,5,3,7s-1,4-2,4s-1,1-3,0s-4-5-4-5
		l-4-6c0,0,0-2,0-3s0-5-1-2s-2,3-2,4s1,2-1,0s-2-1-2-4s-1-4,1-6s2-3,2-3s1-1-1-2s-3,0-3-2s-1-3,1-4s1,0,2-1s0-3-1-4s-3,0-2-2
		s5-5,5-5s3-2,4-2s6,0,6,0s3,2,5,2s5,2,4,0s-1-4-2-5s-3-5-4-5s-3-1-3-1s0-1-2,0s-3,1-4,1s-2-3-2-3s-1-2-2-3s-5-4-5-4l-1-2
		c0,0-1,3-1,5s-1,3-2,4s-2,3-3,2s-3-2-2-4s4-3,2-3s-4,0-5,2s-1,4-2,5s-1,2-3,3c0,0-1,1-2,1s-3,2-4,2s-2,1-3,0s-2,0-3-1s-1-1-4-1
		s-4,1-5,0s-4-3-4-3s0-2-1-3c-0.33-0.33-0.67-1.11-0.96-2h-0.04h-3l-5-6l-9-8l-5-5l-6-3h-6l-10,2l-8-1l-5,2l-4,6l-2,1l-4-2
		c0,0-2-4-2-6s0-6,0-8s-3-9-3-9s0-4,0-5s-1-4-2-5s-8-3-8-3s-7-3-8-4s-7-8-7-8l-3-7c0,0-1.57-3.93-1.93-5.51l-3.07,3.51l-1,1
		c0,0-5,4-6,5s-4,3-4,3s0,4,0,5s0,8,0,8l3-5c0,0,2-4,2-6s3-5,3-5l2-2c0,0,0,2,0,5s-1,5-3,7s-1,6-2,8s-2,7-4,9s-1,3-1,4s-3,5-3,5
		s-1-2-1-4s1-6,1-9s0-5,0-5s-5,7-6,7s-4,2-4,2l-3,21c0,0,0,9,0,12s-2,10-2,10s-3,10-4,12s0,11,0,11s-1,13-1,14s-3,10-4,12s0,7,0,10
		s1,7,1,7l2,5l2-1l4-5v-6c0,0,0-11,0-13s1-8,1-9s1-8,1-8l1-6l3-5v-4l1-6l1-6l3-3l-1,6l-1,7v7c0,0,0,3-1,4s-3,2-3,3s0,8,0,8v9v13v5v5
		l-3,4c0,0-3,2-4,3s-1,0-2,2s-2,4-2,4l-4,2l-2-3l1-4l1-2c0,0,0-3-1-5s-3-7-3-9s0-4,0-6s0-7,0-8s1-5,2-6s1-5,2-8s1-5,1-7s0-5,0-5
		s0-5,1-6s2-2,3-4s1-8,2-11s1-12,1-12s0-8,0-10s4-8,4-8l0.31-1.86l1.69-10.14l-3-2c0,0-3-5-3-6s-1-5,0-6s2-6,2-6s2,5,2,6s0,5,0,5
		s-2,1,0,2s4,4,4,4s0,1,1-1s-1-2,1-5s2-4,3-4s3-5,3-5l-5-4l-7-7l-4-8l-3-8l-0.78-15.83c-0.13,0.33-0.22,0.62-0.22,0.83c0,1-2,7-2,7
		l-3,3l-4,5l-5,5l-6,4l-5,2h-6l-5,2l-3,3l-6,4c0,0-2,1-3,1s-6,2-6,2s-2,0-3,0s-3,0-4,0s-8,1-8,1l-4,6l-4,8l-5,5l-7,5l-9,5l-4,6l-6,6
		c0,0-5,6-5,7s-5,4-5,4s-3,1-5,2s-5,1-7,1s-7,1-7,1s3,4,4,5s2,4,3,5s3,4,2,5s-1,5-2,6s-4,6-4,6s-3,8-4,9s-3,8-3,8v4l-2,6l-3,7l-3,9
		l-4,12l-4,5l-3,4l-4,2l-5-1l-6,4l-7,2c0,0-2-1-4-1c-0.55,0-1.18,0-1.82-0.02l0.82,1.02c0,0,4,2,5,2s4-1,4-1l4-2l4-2h3l4-1l4-1l1-2
		l3-4l3-5l2-4l1-4l2-3l2-5l1-4l2-5c0,0,1-5,2-6s1-4,1-6s2-3,2-3s2-3,2-4s1-4,1-4s3-8,4-8s3-6,3-6l3-2l-3,5l-3,7l-1,5l-2,4
		c0,0-2,4-2,5s-2,6-2,6l-1,8l-5,14l-5,10c0,0-6,9-7,11s-3,3-4,5s-3,0-3,0l-1-2c0,0-4,1-5,1s-5,3-5,3s-6,3-7,3s-5-1-6-1s-5-2-6-2
		s-3-2-3-3s-3-1-3-1h-2l1,2l4,3l3,1c0,0,3,2,4,3s2,2,2,2s0,2-1,3s-4,0-4,0l-2,3v2l5,2l7-2l6-1h5c0,0,5-2,6-2s3,0,4,0s6-4,6-4
		s2-4,3-4s4-3,4-4s4-2,4-2l3.96-1.98c0.88-1.84,2.04-4.4,2.04-5.02c0-1,7-13,7-13l5-14l7-11l3-9c0,0,2-1,3-3s5-5,5-5s8-2,8-3
		s2-5,2-6s1-4,1-4s4-1,6-2s3-1,5-2s7-7,7-7s1-5,2-5s7-2,7-3s3-2,4-2s7-2,8-3s8-5,9-6s6-3,6-3s-1,3-2,4s-5,6-5,7s-2,2-2,4s-1,8-1,8
		s1,7,1,8s1,5,1,5l1,1v-2c0,0,0-3-1-4s0-5,0-5l1-3v-5l1-4c0,0,2-3,3-4s3-5,3-6s2-4,2-4l-1-2c0,0-4,1-5,1s-5,4-5,4s-8,5-9,5s-5,2-6,2
		s-4,3-4,3l-5,2l-5,4c0,0-3,4-3,5s-3,3-3,3s-4,2-5,2s-5,2-5,2l-3,1c0,0-1,4-2,4s0,4,0,5s-3,2-4,2s-6,0-6,0s-0.43-0.22-0.57-0.29
		l0.57,2.29l-0.57-2.29c-0.84-0.42-3.43-1.71-3.43-1.71l-4-5c0,0-3-6-3-7s-1-4-2-5s-2-5-2-6s-4-3-4-3l-2-3h4l4-1l4-2l4-2l6-5l3-5
		l5-5l3-4l1.33-0.67l1.67-3.33l-1.67,3.33l2.67-1.33l5-3c0,0,5-3,5-4s5-4,6-5s4-5,4-5l8-6l4-4l7-3l-5,4l-5,6l-6,6l-5,6l-5,4l-4,3
		l-6,4l-7,4l-1.5,3l2.5-1l-2.5,1l-1.5,3l-4,6l-2.94,4.12l0.94,1.88l-0.94-1.88l-2.06,2.88l-6,3l4,1c0,0,5,6,6,6s5,5,5,5s3,1,3,0
		s-2-3-2-4s-2-5-2-5l4,3c0,0,2,4,3,5s2,1,2,1l-1-3l-3-4l4,3l3,4l2-2l5-4l1-4l-2-2l3-4l6-2l4-4l2-4l5-4l9-4l-5,5l-5,3l-3,5h3l5-2l4-2
		l6-3l6-4l5-4c0,0,4-5,4,2s-1,7-1,7s-2,7-3,9s-5,8-5,8l-3,9l3,6l2,7l-1,9c0,0-4,9-5,11s-3,8-3,8l3,7l7,6l7,4c0,0,6,5,7,5s7,7,7,7
		s9,4,10,6s8,1,8,1l8,1l7-1l-3,3h-6l-10,1l-9-3c0,0-7-4-8-5s-6-5-6-5l-9-6l-5-4l-7-4l-3-2c0,0-1,5-2,7s-3,8-4,10s-1,9-1,11s-3,9-3,9
		s-6,10-7,11s-5,9-6,11s-2,9-2,9s-5,12-5,14s-5,17-6,19s-4,12-4,12l-2,14v7l-1,11l-1,8l-1,8v7l-4,9l-2,3l-4,7l-3,9c0,0-7,8-7,9
		s-2,9-2,9s-3,4-3,5s-4,11-4,11l-2,4l-2,7l-1,6c0,0-1,5-1,6s-3,6-3,7s-2,7-2,7l-1,5c0,0-2,7-3,8s-1,5-1,5s-1,6-2,7s-2,5-2,6
		s-2,5-2,5v5l-1,3l-3,8l-2,8v2.83L76,568h5l5,3l7,6l0.5,3.5l-2,1l-2-1l-2-2c0,0-4-3-5-4s-2-1-2-1l-4-1l-2,2l-1,3c0,0,3,1,3,2
		s3,2,3,3s2,2,3,3s2,2,3,3s3,4,3,4l2,4l2,4c0,0,1,4,1,5s2,2,2,2l3,4l5,4l9,3l5,2c0,0,5,1,7,1s3,0,5,0s2,0,4-1s2-1,2-1l2-1l2-2l1-1
		c0,0,0-3-1-4s-1-1-1-1s-4-2-5-3s-3-3-3-3l-0.82-3.27l-2.18-2.73c0,0,0-3-1-3s-2-2-2-2l-3-2l-2-2l-0.79-1.06
		c-0.07,0.02-0.13,0.06-0.21,0.06c-1,0,0,1,0,1s-4,3-5,3s-4-1-5-1s-3-1-3-1s-3-1-4-2s-2-1-3-2s-3-1-3-1l1-2v-2l-1-3c0,0,1-1,2,0
		s1,1,1,1s2,2,2,3s2,2,3,3s2,1,4,2s2,1,3,1s1,0,2,0s1-1,1-1s1-3,1-4s1-1,1-2s0-3,1-4s0-3,1-5s1-3,1-3l1-3l1-1l1,1l1-1v-3l-1-2l1-6
		v-5l-1-4c0,0,1-5,1-6s0-5,1-6s3-5,3-6s2-5,3-6s4-6,4-6l4-10c0,0,2-8,3-10s5-11,5-12s6-14,6-14l3-8l3-8l5-9l2-3.33v-5.67
		c0,0-2-8-2-9s-3-6-4-8s-3-8-3-8s0-7,1-10s5-9,6-10s9-14,9-14l9-10l13-15c0,0,8-8,9-9s6-2,7-4s5-7,5-7s-2,5-3,7s-3,4-5,6s-4,5-6,8
		s-5,7-8,10s-7,6-9,9s-4,9-7,12s-6,5-7,8s-4,7-5,8s-3,5-3,5s0,5,0,6s2,4,2,5s2,4,2,5s4,12,4,13s3,9,3,10s3,9,3,9s1,10,2,11
		s2,13,2,13l1,13c0,0,3,9,3,11s2,9,2,10s2,7,2,7l-1,16v10v7c0,0,1,0,2,0s2,0,2,1s0,1,0,3s-2,3-2,3l-2,1c0,0-1,2-1,3s1,3,1,3
		s-1,4-1,5s0,7,0,8s-1,3,0,4s2,4,2,5s1,1,2,2s1,3,3,1s3-3,4-4s2-2,2-4s1-6,1-6s1-3,0-5s-1-3-1-4s-1-4-1-5s-2-3-2-3s0-3-1-3s-2,1-2,0
		s-1-5-1-5s0-2,1-2s0-6,0-6l-1-5v-12c0,0,0-3,0-4s1-6,1-7s1-4,2-4c0.36,0,1.13-0.27,1.95-0.6c1.27-3.99,3.05-10.86,3.05-12.4
		c0-2,3-16,3-16l-1-11l-1-6l3,5c0,0,3,4,4,5s2,4,4,5s8,3,9,4s7,3,7,3s0.44,0.22,1,0.55v-6.55l1-5c0,0,0-10,0-11s-4,0-6,0s-4-3-5-5
		s-3-3-3-3s-4-7-4-8s2,0,2,0s2,0,4,2s5,0,6,1s3,2,4,4s5,3,5,3v-8l1-12c0,0-3-18-3-20s-1-9-2-11s-4-10-4-11s-5-12-6-14s-3-8-3-10
		s0-14,1-17s1-15,1-15l3-9l3-9l2-9l-1-9c0,0,4-8,5-9s5-12,5-12l3-7l5-7l-1,4l-1,3l-2,6l-2,7c0,0-3,10-5,12s-1,6-2,8s-1,10-1,12
		s-2,10-4,13s-3,8-3,8v10v19l1,6l3,9c0,0,2,7,2,8s4,10,4,10l2,8l2,5l1,12l2,10l-1,5c0,0-2,12-2,14s1,4,2,5s0,3,0,4s-3,1-4,1s1,5,1,5
		l-2,8l3,4c0,0,6,7,6,9s-2,11-2,11l-6,11l-3,5l4,5c0,0,8,5,10,7s3-2,3-2l5-7c0,0,7-3,8-4s9-3,9-3h9l9,3c0,0,4,3,4,4s3,6,3,6s3,0,5,0
		s7,0,8,0s10,1,10,1s8,4,9,4s8,6,9,7s8,7,9,10s4,2,4,2l-3-5l-6-9l-6-6l-6-4l-7-8l-10-7c0,0-6-6-8-8s-8-5-8-5l-4-8l6,3l2.27,0.45
		c-0.75-0.85-1.27-1.45-1.27-1.45l-5-4l11,5l14,12l9,6h4l3-1h5c0,0,1-1,2,1c0.13,0.26,0.32,0.6,0.54,0.98l2.46-0.98l1,2l4,4
		c0,0,3,7,3,8s3,8,3,10s4,4,6,6s4,6,5,7s4,3,4,3s-1-4-1-5s-1-7-1-7s-2-5-2-6s-2-7-2-7l-3-6l-7-8l-6-3l-11-1c0,0-4-1-6-1s-5-1-5-1
		s-3-2-3-3s-3-4-3-5s-2-5-2-5v-9c0,0,0-4,1-6s1-7,1-7l-1-4l-4-1c0,0-7-1-9-1s-5-1-7-1s-5-3-6-4s-3-2-4-3s-2-5-3-8s-1-6-2-8s-3-5-4-6
		s-3-1-4-1s2-3,3-4s1-4,3-7s3-5,3-6s2-5,2-5l-4-3l-4-4h4l7,5l3,5l-3,3l-1,3l-0.38,2.62l2.38,2.38v6l3,5c0,0,4,1,5,1s6,0,7-1s1-5,2-6
		s3-3,3-3s4,1,5,2s6,4,7,4s5,0,7-1s5-2,6-3s5-7,5-7v-4l2,3c0,0,3,1,4,3c0.4,0.8,1.28,1.76,2.26,2.69c-0.36-2.15-0.81-4.24-1.26-4.69
		c-1-1-2-4-3-6s-2-3-2-3l-6,2c0,0,1-2,1-3s4-5,4-5l1-6l4-2l1,4l4,15c0,0,5,11,6,12s7,1,7,1s3-2,4-3s3-4,3-5s-2-4-3-6s-2-2-3-5
		s-3,1-3,1l-4-4l-6-6c0,0-3-2-3-3s-4-5-4-5s-4,1-6,2s-4-3-4-3l2-4l-4-4c0,0-6-4-8-5s3,3,3,4s3,5,3,5s-2-1-3-2s-5-1-5-2s-7-5-7-5
		l-11-3c0,0-5-5-7-7s-3-7-4-8s3-8,3-8h2.47c0.59-2.71,1.53-6,1.53-6s2-14,2-15s1-13,1-14s0-12,1-14s1-14,1-14l2-3c0,0,7,3,10,4
		s22,7,22,7s11,3,12,4s11,1,11,1s9-8,10-8s5-10,6-11s7-11,7-11l7-20l4-11l6-14l5-9c0,0,1,10,1,11s2,9,2,9l-4,10
		c0,0,0.39,1.55,0.68,2.96c0.48-0.85,0.96-1.6,1.32-1.96c0.99-0.99,5.87-7.82,5.99-7.98c0.01-0.62,0.01-1.02,0.01-1.02v1
		c0,0-0.01,0.01-0.01,0.02c-0.04,2.21-0.21,7.42-0.99,8.98c-1,2-3,7-3,7s-1,2-1,4s-1,2,0,5s0,2,2,5s3,6,3,6l2,10c0,0,0,7-1,9
		s-2,5-3,7s-2,3-3,5s-3,12-3,12s-3,5-3,6s-1,5,0,7s1,5,1,6s1,9,1,10s2,7,2,7s2,7,3,8s2,2,3,3s4,6,5,8s4,4,4,7s2,5,2,6s1,4,1,2
		s1-5,1-9s1-9,1-9s2-6,3-8s3-6,4-9s2-3,2-5s0-2-1-5s-3-4-3-7s-2-4-2-7s-1-5,0-9s2-8,2-8s2-3,3-5s3-4,4-6s2-3,2-3s2,1,2,2s0,5,0,6
		s0,2,0,5s0,3,0,5s-1,3,0,6s2,6,3,8s2,4,3,5s3,3,3,3s-1-1-2-6s-2-6-2-10s0-6,1-10s3-9,3-10c0,0,2-4,2-6s4-7,4-11s1-6,2-9s3-8,3-8
		l1.54-6.16l0.46-1.84c0,0,0,9,0,11s-1,3-1,5c0,0.77,0,2.72,0,4.83c0.43-0.94,0.79-1.62,1-1.83c1-1,6-9,6-11s0-10,0-12
		S473.5,258.5,472.5,256.5z M217.5,101.5c-2,2-4,4-4,4l-3,4c0,0-3,3-6,4s-4,0-6,0s-5-1-6-1s-5,1-6,1s-3,0-3,0l4-2l3-1l8-1
		c0,0,5-2,6-2s5-3,6-4s4-2,4-2l6-6l5-4c0,0,5-4,5-5v2c0,0-3,3-4,4s-2,3-3,4S219.5,99.5,217.5,101.5z M123.5,601.5c0,0,1,0,2,0
		s3-1,3-1s0,1,0,2s1,2,1,3s2,2,2,2l2,2l2,1c0,0,0,1-1,1s-2,1-3,0s0-3-2-3s-4-2-5-3s-3-3-3-3l-1-2L123.5,601.5z M108.5,570.5
		c1-1,1-4,1-5s-1-4-1-5s0-4,0-4l2-6c0,0,2-5,3-5s2-4,2-4l1,2l-4,5c0,0-1,4-1,5s0,3,0,4s1,4,1,6s-1,5-2,7s-1,6-1,6h-5l2-1
		C106.5,575.5,107.5,571.5,108.5,570.5z M98.5,577.5l-4-2l-3-2l-4-4l-4-2l1-1h2c0,0,3,1,4,2s3,3,3,3l5,3l2,3H98.5z M102.5,574.5
		l-2-1c0,0-2-1-3-2s-2-1-3-1s-1-2-1-2s-1-2-2-2v-1c0,0,2,0,3,0s1,2,1,2l3,1c0,0,3,2,4,2s2,2,2,2l-1,1L102.5,574.5z M119.5,551.5
		l-1,4v5c0,0-1,6-2,7s-1,3-1,4s-1,5-2,7s-1,3-1,4s-1,3-1,3s-1-1-2-2s-3-2-4-2s-2-3-2-3l2,1h4c0,0,1-1,2-2s0-2,1-3s2-4,2-6s1-4,1-5
		s2-5,2-7s0-5,0-5v-6l2,1V551.5z M216.5,384.5l1,1c0,0,3,1,1,2s0,1-3,3s-3,3-4,3s-4,2-5,2s-3,0-3,0s-1,1-2,1s-3,0-4,1s-4,3-4,3
		s-1,0-2,2s-3,3-3,5s0,3,0,4s-1,2-1,4s-1,5,0,6s1,2,2,4s0,3,1,5s1,3,2,5s2,5,3,6s3,6,3,6s0-3,0-4s2-6,2-8s0-6,0-8s0-7,1-9s1-4,3-7
		s3-5,4-7s3-4,5-6s6-8,6-8l1,2c0,0-2,1-3,4s-4,10-4,10l-2,6c0,0-2,5-2,8s0,3-1,6s0,3-1,5s-1,4-2,5s-1,3-2,6s0,4-1,6s-2,3-1,6
		s1,4,2,6s3,5,3,5l4,2c0,0,2,2,0,2s0,0-3-1s-3-2-4-3s-2-3-3-5s-2-7-2-7l-1-3c0,0-3-4-4-6s-4-8-4-8s-4-5-4-8s-1-8-1-8s-2-4-1-8
		s1-6,2-8s1-4,3-5s1-1,4-2s5-1,6-2s5-2,5-2l7-4L216.5,384.5z M334.5,409.5c0,0,2-1,2-3s-1-3,0-3s2,3,2,3v3l-2,2c0,0-1,2-1,3
		s-2,1-2,1l-1-2L334.5,409.5z M317.5,427.5c2,0,5,0,8-1s8-4,8-4l-1-4c0,0,0-2,1-1s0,3,1,4s2,3,2,3l-5,3l-7,2c0,0-6,0-7,0s-6-2-6-2
		S315.5,427.5,317.5,427.5z M314.5,166.5c1-2,2-2,3-3s3-3,5-4s4-2,5-2s9-2,9-2s2-1,3-1s6,1,6,1l1,2h-4c0,0-5,0-6,0s-1,0-3,1
		s-2,0-4,2s-5,4-6,5s-2,1-4,2s-5,3-5,2S313.5,168.5,314.5,166.5z M307.5,233.5c1-1,4-2,5-2s5,1,5,1s2,1,2,2s-3,0-3,0c-1,0-2,0-3,1
		s-3,2-3,2l-3,2v2c0,0-2,1,1,1s4,0,7-1s6-2,9-3s9-3,9-3s6-1,6-2s0,0,1-4s2-5,3-6s2-2,2-2s2,0-1-1s-4-1-4-1l-1-3l-2,2c0,0,1,0-1,2
		s-3,5-3,5l-2,3h-1c0,0-1-3,0-4s3-3,3-4s1-3,1-3v-3c0,0-1-2-2,0s0,3-1,4s0,0-1,2s-1,4-2,4s-2,2-2-1s1-4,1-5s2-5,2-5s1-2,1-4s0-4,0-6
		s0-4,0-5s-1-4,0-5s0-1,1-2s2-1,2-1l2,1c0,0,0,1,0,3s0,5,0,6s0,5,0,5s0,3,0,4c0,0.57,0.33,1.47,0.61,2.13
		c-0.1-0.5-0.07-1.2,0.39-2.13c1-2,1-3,1-5s0-3,0-6s1-5,1-6s1-3,1-3s3,1,3,2s0,4,0,4v8l1,6c0,0,2,3,2,4s3,0,3,0s2-2,4-2s4,0,5,0
		s4,0,4,1s0,2-2,4s-2,2-4,3s-4,1-4,3s0,3-2,6s-3,5-4,7s-1,2-2,3s-4,3-6,3s-1,2-4,2s-3,0-7,1s-6,2-8,2s-3,0-5,1s0,2-4,1s-7-2-7-2
		s-2-3-2-5s1-4,2-5S306.5,234.5,307.5,233.5z M298.5,266.5c-1-1-1-2-2-2s-1-3-1-5s0-7,0-7s2-1,2,0s1,4,1,4s-1,2,0,3s1,1,2,2s2,2,2,3
		s0,3,0,4s-2,4-2,4s-2-3-2-4S299.5,267.5,298.5,266.5z M306.5,275.5c1,1,5,1,5,1s10,1,11,2s13,2,13,2s13,1,14,0s8-1,10-2s6-5,6-5v1
		l-1,2c0,0-4,4-7,5s-3,2-5,2s-8,1-10,1s-8-1-11-1s-6,0-11-1s-7-2-10-2s-6-3-6-3l-2-3C302.5,274.5,305.5,274.5,306.5,275.5z
		 M300.5,176.5v3c0,0-1,3-4,5s-6,4-6,4l-4,3c0,0-4,1-4,2s-3,4-3,4l-4,1l3-6c0,0,0-3,3-4s13-8,14-9S300.5,176.5,300.5,176.5z
		 M268.5,105.5l1,1l1,4l2,3l3,5c0,0,4,2,4,3s3,3,3,3l6,3l4,1c0,0,3,2,4,2s1,1,1,1s0,3,0,5s0,6,1,7s1,4,1,5s0,5,0,5s-1-1-2-3
		s-1-6-2-8s-2-6-2-7s4-3-1-3s-5-1-6-1s-6-1-7-3s-2-3-3-4s-4-3-4-4s-2-4-3-5s-2-5-2-6S268.5,105.5,268.5,105.5z M263.5,215.5
		c0,0,1-2,2-4s2-4,2-4s0-4,0-7s0-6,0-8s-1-7-1-7s1-2,1-4s1-1,2-2s0-1,0-5s-1-3,0-5s3-1,4-1s1,2,1,2s0,2,0,5s-2,3-3,5s-1,2-2,4
		s1,3,2,4s1,4,1,5s0,3,0,5s0,3,1,3s2-1,4-1s3-2,3-2v1c0,0-3,3-4,4s-3,2-4,4s-3,3-4,4s-1,3-1,4s-1,2-2,3s-3-1-3-1L263.5,215.5z
		 M265.5,220.5h2l-2,6c0,0-4,6-4,7s-3,8-3,8s-2,7-4,9s-2,5-3,6s-2,3-2,3h-2c0,0,0-3,0-4s4-9,5-10s2-3,3-5s3-5,4-9s3-7,3-7
		L265.5,220.5z M251.5,238.5c1-1,3-3,3-5s1-7,2-8s1-6,2-6s2-1,2-1l1,2c0,0-2,3-2,5s0,5-2,7s-1,2-2,4s-3,3-3,5s0,4-2,5s-3,2-3,2l-1-4
		C246.5,244.5,250.5,239.5,251.5,238.5z M255.5,478.5c-2,2-5,1-5,1l-1-9c0,0-1-3-1-4s-2-3-3-4s-2-2-1-4s1-2,1-2v-6c0,0,1-1,4-2
		s4-3,4-1s-2,4-2,5s-3,2-1,4s4,5,4,5l-3,7c0,0,2,5,3,6S257.5,476.5,255.5,478.5z M410.5,210.5l-2,12l-3,6l-4,9l-5,11l-5,12l-3,8
		l-3,9l-4,8l-5,7l-4,9c0,0-7,5-7,6s-7,2-7,2l-4-2l-6-2l-8-2l-10-3c0,0-7-2-9-3s-7-4-8-4s-7-1-7-1l-2,3v12l-2,8v11l-3,9c0,0-2,5-6,8
		s-4,5-5,7s-4,8-5,12s-1,8-1,10s3,7,5,9s4,6,5,8s5,5,6,6s1,2,1,5s0,3,0,5s-4,1-9,1c-1.69,0-2.45,0-2.78,0c-0.16,0-0.22,0-0.22,0
		c-1,0-2,0-6-1s-6-1-8,0s-2,1-4,5s-5,4-5,4l1-7c0,0,2-4,3-6s5-1,7-1s4-1,9-1s2,0,4,0s4-1,4-1s-1-1-2-2s-3-4-3-4l-3-1l-1-6l-3-9
		c0,0-4-9-4-10s1-2,2-3s2,4,2,4s0-2,0-5s1-2,1-5s-2,1-2,1l-4,5c0,0-6,7-6,6s0-7,0-7l1-5l8-6l4-5l5-6c0,0,3-6,4-7s1-5,1-5s1-2,3-5
		s2-4,2-4l4-9v-4v-5c0,0,0-9,0-10s-3-1-4-1s-4,0-4,0l-6,2h-9l-2,1l-1,1l1-1l2-1h-32l-3-1l-1-2l1-1h17v-1h-14h-2l-3-2v-1l3-1h16v-1
		l-17-2l-2-1v-2l2-1h18v-1l-17-3v-3h4h3c0,0,4,0,5,0s3,1,5,1s3,0,3,0s3,0,4,0s1-1,2-1s1-1,1-1s0-2-1-3s-1-2-2-3s-2-1-3-2s-2-1-2-2
		s-1-2-1-2l2-1h3l4,2l4,3c0,0,5,4,6,5s3,2,3,3s5,2,5,2s5,2,6,2s3,2,4,2c-1,0-3-2-4-2s-6-2-6-2s-5-1-5-2s-2-2-3-3s-6-5-6-5l-4-3l-4-2
		h-3l-2,1c0,0,1,1,1,2s1,1,2,2s2,1,3,2s1,2,2,3s1,3,1,3s0,1-1,1s-1,1-2,1s-4,0-4,0s-1,0-3,0s-4-1-5-1s-5,0-5,0h-3h-4v3l17,3v1h-18
		l-2,1v2l2,1l17,2v1h-16l-3,1v1l3,2h2h14v1h-17l-1,1l1,2l3,1h32l2-1l1-1l3-1c0,0,8-2,9-2s8-1,9-1s6,1,7,2s8,2,10,2s7,4,8,4s9,4,9,4
		s9,3,10,4s9,2,9,2l7,1c0,0,6-4,7-5s3-6,3-6l5-10l5-11l5-12c0,0,6-15,7-16s7-14,7-14l3-11c0,0,1-12,1-14s2-9,2-9s-5-4-6-5s-5-1-8-1
		s-7-1-13-2s-8-2-8-2s-8,1-13,2s-8,2-11,3s-3,1-3,1s3-3,4-3s6-3,6-3l6-1c0,0,7-1,8-1s5,0,5,0s7,1,9,1s5,1,6,1s5,0,5,0h5c0,0,3,1,4,1
		s5,3,5,3l2,10V210.5z M372.5,240.5c1-3,2-5,3-7s2-3,2-3l-1,5c0,0,0,4-1,6s-3,6-3,8s-1,6-1,8s-1,4-1,6s1,2-1,4s-1,3-2,3s-2-1-2-3
		s0-2,1-5s1-3,2-7s0-4,1-7S371.5,243.5,372.5,240.5z M369.5,217.5c0-1,1-3,2-3s4,0,7-2s6-4,7-4s3-2,3-1s1,2-1,4s-4,2-5,3s-1-1-2,2
		s-1,4-2,4s-2,0-3,0s-4-1-4-1S369.5,218.5,369.5,217.5z M467.5,262.5c0,2,0,4,0,4l-1-5c0,0,0-2-1-4s-2-6-2-7s-2-5-2-5l-1,5l-1,4
		c0,0-2-4-3-7s-1-6-2-7s0-4,0-6s0-3,0-5s0-9,0-9s1,3,2,7s3,10,3,10s-1,4-1,5s0,3,1,1s2-5,2-5s1,1,2,4s2,4,3,6s2,2,2,6
		S467.5,260.5,467.5,262.5z"/>
	<path class="st0" d="M133.5,607.5c1,1,5,3,5,3s0,0,1,1s1,4,1,4l-1,1l-2,2l-2,1c0,0,0,0-2,1s-2,1-4,1s-3,0-5,0s-7-1-7-1l-5-2l-9-3
		l-5-4l-3-4c0,0-2-1-2-2s-1-5-1-5l-2-4l-2-4c0,0-2-3-3-4s-2-2-3-3s-3-2-3-3s-3-2-3-3s-3-2-3-2l1-3l2-2l4,1c0,0,1,0,2,1s5,4,5,4l2,2
		l2,1l2-1L93,577l-7-6l-5-3h-5l-0.5,0.33v3.17v-3.17l-4.75,3.17l0.75,3l-0.75-3L70,572l0.5,6.5l3,3l4,5l3,6c0,0,1,7,2,8s2,6,2,6l4,4
		c0,0,7,5,8,5s6,4,7,4s5,1,7,2s7,2,8,2s6,1,8,1s6,0,7,0s6-1,6-1s3-1,3-2s2-4,2-5s-1-3-1-3l-2-3l-5-4l-4-3l-3-3l0.18,0.73l1.82,2.27
		l-1.82-2.27l0.82,3.27C130.5,604.5,132.5,606.5,133.5,607.5z"/>
	<path class="st0" d="M119.5,566.5l-1,3c0,0,0,1-1,3s0,4-1,5s-1,3-1,4s-1,1-1,2s-1,4-1,4s0,1-1,1s-1,0-2,0s-1,0-3-1s-3-1-4-2
		s-3-2-3-3s-2-3-2-3s0,0-1-1s-2,0-2,0l1,3v2l-1,2c0,0,2,0,3,1s2,1,3,2s4,2,4,2s2,1,3,1s4,1,5,1s5-3,5-3s-1-1,0-1
		c0.08,0,0.14-0.03,0.21-0.06l-2.21-2.94l2.21,2.94c0.77-0.27,0.71-2.02-0.21-2.94c-1-1-1-4-1-4v-3l2-4l2-5v-3l-2,2l2-2l-1-1
		L119.5,566.5z"/>
	<path class="st0" d="M124.5,605.5c1,1,3,3,5,3s1,2,2,3s2,0,3,0s1-1,1-1l-2-1l-2-2c0,0-2-1-2-2s-1-2-1-3s0-2,0-2s-2,1-3,1s-2,0-2,0
		l-3-1l1,2C121.5,602.5,123.5,604.5,124.5,605.5z"/>
	<path class="st0" d="M93.5,571.5c0,0-2-2-3-3s-4-2-4-2h-2l-1,1l4,2l4,4l3,2l4,2h2l-2-3L93.5,571.5z"/>
	<path class="st0" d="M104.5,572.5c0,0-1-2-2-2s-4-2-4-2l-3-1c0,0,0-2-1-2s-3,0-3,0v1c1,0,2,2,2,2s0,2,1,2s2,0,3,1s3,2,3,2l2,1l1-1
		L104.5,572.5z"/>
	<path class="st0" d="M117.5,551.5c0,0,0,3,0,5s-2,6-2,7s-1,3-1,5s-1,5-2,6s0,2-1,3s-2,2-2,2h-4l-2-1c0,0,1,3,2,3s3,1,4,2s2,2,2,2
		s1-2,1-3s0-2,1-4s2-6,2-7s0-3,1-4s2-7,2-7v-5l1-4v-5l-2-1V551.5z"/>
	<path class="st0" d="M109.5,576.5c0,0,0-4,1-6s2-5,2-7s-1-5-1-6s0-3,0-4s1-5,1-5l4-5l-1-2c0,0-1,4-2,4s-3,5-3,5l-2,6c0,0,0,3,0,4
		s1,4,1,5s0,4-1,5s-2,5-2,5l-2,1H109.5z"/>
	<path class="st7" d="M126.5,188.5c-1-1-4-3-4-3s-2,0-3-1s-2-3-3-4s-3-3-3-3l-2-2l-2,1l3,4l2,4l2,4l3,3l2,3l2,4c0,0,3,2,3,1s2-2,2-3
		s1-3,1-4s-1-3-1-3S127.5,189.5,126.5,188.5z"/>
	<path class="st8" d="M226.5,92.5c1-1,4-4,4-4v-2c0,1-5,5-5,5l-5,4l-6,6c0,0-3,1-4,2s-5,4-6,4s-6,2-6,2l-8,1l-3,1l-4,2c0,0,2,0,3,0
		s5-1,6-1s4,1,6,1s3,1,6,0s6-4,6-4l3-4c0,0,2-2,4-4s5-4,6-5S225.5,93.5,226.5,92.5z"/>
	<path class="st2" d="M238.5,93.5l2,5c0,0,1,3,2,4s3,3,4,4s3,3,3,3l3,1c0,0,2-4,3-4s2,2,2,0s-1-2,0-4s3-6,3-4s0,4,1,4s1,0,2-1
		s1-1,2-3s2-2,2-3s2-2,0-3s-2-2-2-3s0-2,0-2s-1-1-2-1s-4,0-5,0s-5,0-5,0s0,0-2-2s-7-5-7-5l-5-5l-2-2c0,0-1,3-1,4s0,6,0,6s2,5,2,6
		S238.5,93.5,238.5,93.5z"/>
	<path class="st9" d="M238.5,51.5c0,0,2,2,2,3s2,4,2,4l2,4l1,2c0,0,2,1,2,2s1,3,2,3s3,2,3,2s3,2,4,2s5,1,6,1s0-1,0-1l-3-2
		c0,0-1,0-2-1s-3-1-3-1s-1-1-2-2s-2-2-2-2s0,0-1-1s-2-1-2-2s-1-3-1-3l-1-2v-1c0,0,0,1,1,1s2,1,2,2s1,3,1,3s1,1,2,2s3,0,3,1s1,2,1,2
		v-3l-4-3l-2-3c0,0-1-1-1-2s0-5,0-5v-2l-2,1v1l-1,2l-1,1c0,0-1,0-1-1s-1-3-1-3l-2-1h-1L238.5,51.5z"/>
	<path class="st10" d="M236.5,48.5h1c0,0,1-2,1-3s-1-3-1-3s-1-2-2-1s0,3,0,3L236.5,48.5z"/>
	<path class="st11" d="M235.5,50.5c-1-2-2-4-2-4l-2-3l-1,2c0,0,1,1,1,2s2,2,2,4s1,2,1,4s2,4,3,5s2,2,2,2l1-1c0,0-2-3-2-5
		S236.5,52.5,235.5,50.5z"/>
	<path class="st12" d="M272.5,120.5c0,1,3,3,4,4s2,2,3,4s6,3,7,3s1,1,6,1s1,2,1,3s1,5,2,7s1,6,2,8s2,3,2,3s0-4,0-5s0-4-1-5s-1-5-1-7
		s0-5,0-5s0-1-1-1s-4-2-4-2l-4-1l-6-3c0,0-3-2-3-3s-4-3-4-3l-3-5l-2-3l-1-4l-1-1c0,0-1,3-1,4s1,5,2,6S272.5,119.5,272.5,120.5z"/>
	<path class="st0" d="M265.5,218.5c1-1,2-2,2-3s0-3,1-4s3-2,4-4s3-3,4-4s4-4,4-4v-1c0,0-1,2-3,2s-3,1-4,1s-1-1-1-3s0-4,0-5s0-4-1-5
		s-3-2-2-4s1-2,2-4s3-2,3-5s0-5,0-5s0-2-1-2s-3-1-4,1s0,1,0,5s1,4,0,5s-2,0-2,2s-1,4-1,4s1,5,1,7s0,5,0,8s0,7,0,7s-1,2-2,4s-2,4-2,4
		l-1,2C262.5,217.5,264.5,219.5,265.5,218.5z"/>
	<path class="st13" d="M281.5,188.5c-3,1-3,4-3,4l-3,6l4-1c0,0,3-3,3-4s4-2,4-2l4-3c0,0,3-2,6-4s4-5,4-5v-3c0,0-4,2-5,3
		S284.5,187.5,281.5,188.5z"/>
	<path class="st13" d="M255.5,240.5c-1,2-2,4-3,5s-5,9-5,10s0,4,0,4h2c0,0,1-2,2-3s1-4,3-6s4-9,4-9s3-7,3-8s4-7,4-7l2-6h-2l-3,4
		c0,0-2,3-3,7S256.5,238.5,255.5,240.5z"/>
	<path class="st2" d="M250.5,246.5c2-1,2-3,2-5s2-3,3-5s0-2,2-4s2-5,2-7s2-5,2-5l-1-2c0,0-1,1-2,1s-1,5-2,6s-2,6-2,8s-2,4-3,5
		s-5,6-5,6l1,4C247.5,248.5,248.5,247.5,250.5,246.5z"/>
	<path class="st0" d="M300.5,272.5c0,0,2-3,2-4s0-3,0-4s-1-2-2-3s-1-1-2-2s0-3,0-3s-1-3-1-4s-2,0-2,0s0,5,0,7s0,5,1,5s1,1,2,2
		s0,1,0,2S300.5,272.5,300.5,272.5z"/>
	<path class="st14" d="M319.5,167.5c2-1,3-1,4-2s4-3,6-5s2-1,4-2s2-1,3-1s6,0,6,0h4l-1-2c0,0-5-1-6-1s-3,1-3,1s-8,2-9,2s-3,1-5,2
		s-4,3-5,4s-2,1-3,3s0,2,0,3S317.5,168.5,319.5,167.5z"/>
	<path class="st0" d="M302.5,246.5c0,0,3,1,7,2s2,0,4-1s3-1,5-1s4-1,8-2s4-1,7-1s2-2,4-2s5-2,6-3s1-1,2-3s2-4,4-7s2-4,2-6s2-2,4-3
		s2-1,4-3s2-3,2-4s-3-1-4-1s-3,0-5,0s-4,2-4,2s-3,1-3,0s-2-4-2-4l-1-6v-8c0,0,0-3,0-4s-3-2-3-2s-1,2-1,3s-1,3-1,6s0,4,0,6s0,3-1,5
		c-0.46,0.93-0.49,1.63-0.39,2.13c0.21,0.5,0.39,0.87,0.39,0.87s-0.28-0.3-0.39-0.87c-0.28-0.67-0.61-1.56-0.61-2.13c0-1,0-4,0-4
		s0-4,0-5s0-4,0-6s0-3,0-3l-2-1c0,0-1,0-2,1s0,1-1,2s0,4,0,5s0,3,0,5s0,4,0,6s-1,4-1,4s-2,4-2,5s-1,2-1,5s1,1,2,1s1-2,2-4s0-1,1-2
		s0-2,1-4s2,0,2,0v3c0,0-1,2-1,3s-2,3-3,4s0,4,0,4h1l2-3c0,0,1-3,3-5s1-2,1-2l2-2l1,3c0,0,1,0,4,1s1,1,1,1s-1,1-2,2s-2,2-3,6
		s-1,3-1,4s-6,2-6,2s-6,2-9,3s-6,2-9,3s-4,1-7,1s-1-1-1-1v-2l3-2c0,0,2-1,3-2s2-1,3-1c0,0,3,1,3,0s-2-2-2-2s-4-1-5-1s-4,1-5,2
		s-4,2-5,3s-2,3-2,5S302.5,246.5,302.5,246.5z"/>
	<path class="st0" d="M336.11,211.63c0.11,0.57,0.39,0.87,0.39,0.87S336.32,212.13,336.11,211.63z"/>
	<path class="st0" d="M375.5,220.5c1,0,2,0,3,0s1-1,2-4s1-1,2-2s3-1,5-3s1-3,1-4s-2,1-3,1s-4,2-7,4s-6,2-7,2s-2,2-2,3s2,2,2,2
		S374.5,220.5,375.5,220.5z"/>
	<path class="st0" d="M368.5,255.5c-1,4-1,4-2,7s-1,3-1,5s1,3,2,3s0-1,2-3s1-2,1-4s1-4,1-6s1-6,1-8s2-6,3-8s1-6,1-6l1-5c0,0-1,1-2,3
		s-2,4-3,7s-2,5-3,8S369.5,251.5,368.5,255.5z"/>
	<path class="st0" d="M310.5,280.5c3,0,5,1,10,2s8,1,11,1s9,1,11,1s8-1,10-1s2-1,5-2s7-5,7-5l1-2v-1c0,0-4,4-6,5s-9,1-10,2
		s-14,0-14,0s-12-1-13-2s-11-2-11-2s-4,0-5-1s-4-1-4-1l2,3C304.5,277.5,307.5,280.5,310.5,280.5z"/>
	<path class="st0" d="M324.5,429.5l7-2l5-3c0,0-1-2-2-3s0-3-1-4s-1,1-1,1l1,4c0,0-5,3-8,4s-6,1-8,1s-6,0-6,0s5,2,6,2
		S324.5,429.5,324.5,429.5z"/>
	<path class="st0" d="M335.5,414.5c0-1,1-3,1-3l2-2v-3c0,0-1-3-2-3s0,1,0,3s-2,3-2,3l-2,4l1,2C333.5,415.5,335.5,415.5,335.5,414.5z
		"/>
	<path class="st0" d="M254.5,474.5c-1-1-3-6-3-6l3-7c0,0-2-3-4-5s1-3,1-4s2-3,2-5s-1,0-4,1s-4,2-4,2v6c0,0,0,0-1,2s0,3,1,4s3,3,3,4
		s1,4,1,4l1,9c0,0,3,1,5-1S255.5,475.5,254.5,474.5z"/>
	<path class="st0" d="M315.5,559.5c-3,1-4,2-7,4s-3,2-6,4s-1,2-3,5s-2,4-5,7s-2,1-3,1s-2-1-5-4s-2-2-4-4s-8-4-8-4s-4-2-7-3s-6-1-7-1
		s-3,3-6,8s-2,2-2-1s0-4,0-8s1-7,1-12s-1-7-2-4s-4,8-5,13s0,10,0,15s2,4,1,9s-2,9-2,11s7,1,9-3s2-7,3-11s6-10,7-11s9,3,11,3
		s10,8,10,8s5,3,6,4s7-3,9-5s2-6,4-8s5-7,5-7l3-1l5-4C317.5,560.5,318.5,558.5,315.5,559.5z"/>
	<path class="st0" d="M328.5,560.5c-1-2-2-2-3-4s-1-1-2-2s-3-1-5-1s-2,0-5,1s-1,1-3,2s-5,3-6,4s0,3,1,2s1-1,2-1s4-2,6-3s4-2,6-2
		s1,0,2,1s1,3,1,3s3,5,5,6c0,0,1,1,2,1s0-1,0-3S329.5,562.5,328.5,560.5z"/>
	<path class="st0" d="M359.5,559.5c0,0,0-1-1-1s-1,2-1,3s3-1,0,1s-1,2-3,2s-2,0-3-1s-3-2-3-2s-1,0-2,0s-5-3-5-3l-2-2l2,4
		c0,0,0,2,0,7s1,9,1,9s-3,3,0,1s5,2,4-3s-1-2-1-6s-4-8,0-5s4,5,6,5s4,0,7,0s5,0,4-3S359.5,559.5,359.5,559.5z"/>
	<path class="st0" d="M203.5,393.5c0,0-4,1-5,2s-3,1-6,2s-2,1-4,2s-2,3-3,5s-1,4-2,8s1,8,1,8s1,5,1,8s4,8,4,8s3,6,4,8s4,6,4,6l1,3
		c0,0,1,5,2,7s2,4,3,5s1,2,4,3s1,1,3,1s0-2,0-2l-4-2c0,0-2-3-3-5s-1-3-2-6s0-4,1-6s0-3,1-6s1-5,2-6s1-3,2-5s0-2,1-5s1-3,1-6s2-8,2-8
		l2-6c0,0,3-7,4-10s3-4,3-4l-1-2c0,0-4,6-6,8s-4,4-5,6s-2,4-4,7s-2,5-3,7s-1,7-1,9s0,6,0,8s-2,7-2,8s0,4,0,4s-2-5-3-6s-2-4-3-6
		s-1-3-2-5s0-3-1-5s-1-3-2-4s0-4,0-6s1-3,1-4s0-2,0-4s2-3,3-5s2-2,2-2s3-2,4-3s3-1,4-1s2-1,2-1s2,0,3,0s4-2,5-2s1-1,4-3s1-2,3-3
		s-1-2-1-2l-1-1l-6,5L203.5,393.5z"/>
	<path class="st15" d="M198.5,589.5c0,0,0,1-2,2s0,2-3,2s-5,0-5,0l-2-1v1c0,0,1,2,1,3s0,2,0,3s0,3,1,4s-1,1,1,2s1,2,4,2s4,0,5-2
		s2-2,2-4s0-5,0-5v-2c0,0,0-1,0-2s0-2,1-2s2-1,2-1s1-2,0-2s-3,0-3,0l-1,1L198.5,589.5z"/>
	<path class="st0" d="M463.5,242.5c-1-3-2-4-2-4s-1,3-2,5s-1,0-1-1s1-5,1-5s-2-6-3-10s-2-7-2-7s0,7,0,9s0,3,0,5s-1,5,0,6s1,4,2,7
		s3,7,3,7l1-4l1-5c0,0,2,4,2,5s1,5,2,7s1,4,1,4l1,5c0,0,0-2,0-4s1-4,1-8s-1-4-2-6S464.5,245.5,463.5,242.5z"/>
	<path class="st16" d="M434.5,199.5c-2,1-4-1-5-1s-1,2-1,3s0,2,1,3s0,1-1,3s-1,1-2,2s0,2,0,3s2,0,2,0s1-2,2-4s3-1,3-2c0,0,3,0,3-1
		s3,0,4,1s2,0,5,1s1,0,1-1s-1-2-2-3s-3-3-3-3s-3-3-4-3S436.5,198.5,434.5,199.5z"/>
	<path class="st16" d="M446.5,201.5c1,1,2,0,2,0h2c0,0,1-1,1-2s0-1-1-3s-1,0-1,0s-3,2-4,3S445.5,200.5,446.5,201.5z"/>
	<path class="st16" d="M449.5,206.5c1,0,2,2,1,3s-5,2-4,2s0,1,2,1s2,1,3,0s2-2,2-2s2-1,1-2s-3-4-3-4L449.5,206.5z"/>
	<path class="st16" d="M425.5,197.5c0,0,0-2,1-3s3-1,3-1l-1-2c0,0-1-1-2-1s-2,2-2,3s-1,2-1,2s-1,1-2,2s1,2,1,2l3,1V197.5z"/>
	<path class="st16" d="M424.5,214.5c0,0-2,0-1,1s2,3,2,3s1,0,1,1s-1,1,0,1s0-1,1-1s1-1,1-1v-2c-1,0-1-1-2-1S424.5,214.5,424.5,214.5
		z"/>
</g>
</svg>
