<?xml version="1.0" encoding="utf-8"?>
<!-- Generator: Adobe Illustrator 25.0.0, SVG Export Plug-In . SVG Version: 6.00 Build 0)  -->
<svg version="1.1" id="Capa_1" xmlns="http://www.w3.org/2000/svg" xmlns:xlink="http://www.w3.org/1999/xlink" x="0px" y="0px"
	 viewBox="0 0 413 260" style="enable-background:new 0 0 413 260;" xml:space="preserve">
<style type="text/css">
	.st0{fill:#422572;}
	.st1{fill:#381424;}
	.st2{fill:#EFF9FF;}
	.st3{fill:#08090C;}
	.st4{fill:#EAAA22;}
	.st5{fill:#66424D;}
	.st6{fill:#79C428;}
	.st7{fill:#8F6E1C;}
	.st8{fill:#D0CDCE;}
	.st9{fill:#000200;}
	.st10{fill:#321D69;}
	.st11{fill:#604F31;}
	.st12{fill:#F09C0E;}
	.st13{fill:#3A1B7C;}
	.st14{fill:#DDA01F;}
	.st15{fill:#E5A335;}
	.st16{fill:#3D1C50;}
	.st17{fill:#4E1D13;}
	.st18{fill:#7F580E;}
	.st19{fill:#1F0C41;}
	.st20{fill:#6A3E0A;}
	.st21{fill:#B18144;}
	.st22{fill:#FEFEF8;}
	.st23{fill:#A07D14;}
	.st24{fill:#FAFCF9;}
	.st25{fill:#F2A709;}
	.st26{fill:#F6F9F9;}
	.st27{fill:#E79B23;}
	.st28{fill:#FFFAF8;}
	.st29{fill:#BB8B20;}
	.st30{fill:#FFFCF6;}
	.st31{fill:#B5811C;}
	.st32{fill:#EFEFE0;}
	.st33{fill:#5C2A00;}
	.st34{fill:none;stroke:#FFFFFF;stroke-miterlimit:10;}
	.st35{fill:#401E77;}
	.st36{fill:#2D0C14;}
	.st37{fill:#BA8B28;}
	.st38{fill:#2E0700;}
	.st39{fill:#3C1D79;}
	.st40{fill:#1A002F;}
	.st41{fill:#CF922A;}
	.st42{fill:#E6A42A;}
	.st43{fill:#3D1A52;}
	.st44{fill:#D89C21;}
	.st45{fill:#310E02;}
	.st46{fill:#3D1C72;}
	.st47{fill:#5D2800;}
	.st48{fill:#D9A124;}
	.st49{fill:#341519;}
	.st50{fill:#331769;}
	.st51{fill:#3F1E6B;}
	.st52{fill:#391D6D;}
	.st53{fill:#E09B1B;}
	.st54{fill:#3B2078;}
	.st55{fill:#6C6150;}
	.st56{fill:#2D1752;}
	.st57{fill:#F09A07;}
	.st58{fill:#FBF9FA;}
	.st59{fill:#B59363;}
	.st60{fill:#2E5400;}
	.st61{fill:#79C31D;}
	.st62{fill:#001E00;}
	.st63{fill:#283A00;}
	.st64{fill:#FFFBEF;}
	.st65{fill:#251C19;}
	.st66{fill:#E8A103;}
	.st67{fill:#F9FFFE;}
	.st68{fill:#E39E05;}
	.st69{fill:#FCFDFF;}
	.st70{fill:#DF9A03;}
	.st71{fill:#FFFCFD;}
	.st72{fill:#F39A0D;}
	.st73{fill:#FBFCFC;}
	.st74{fill:#EBA00E;}
	.st75{fill:#FAFBFF;}
	.st76{fill:#E1A31E;}
	.st77{fill:#53555C;}
	.st78{fill:#481929;}
	.st79{fill:#D58E18;}
	.st80{fill:#341200;}
	.st81{fill:#D6941B;}
	.st82{fill:#331F4A;}
	.st83{fill:#1D0E0E;}
	.st84{fill:#4D1E00;}
	.st85{fill:#180000;}
	.st86{fill:#E6A71E;}
	.st87{fill:#A08530;}
	.st88{fill:none;stroke:#53555C;stroke-miterlimit:10;}
</style>
<g>
	<path class="st0" d="M27.5,132.5c0,0-5,1-6,1s-3,2-5,3s-3,2-3,2l-4,4c0,0,2,2,3,2s3,0,3,0h5l4,2l3.55,2.13l1.45-3.13l4.5-12.75
		l-0.5-0.25H27.5z"/>
	<path class="st1" d="M41.5,106.5c-1,0-4,2-4,2l-5,4l-4,4l-4,3c0,0,1,1,2,1s5-2,5-2s6-2,7-2c0.62,0,2.75,0,4.54,0
		c1.12-2.86,3.69-7.23,4.46-8c0.14-0.14,0.44-0.42,0.83-0.78c-0.33-0.14-0.63-0.22-0.83-0.22C46.5,107.5,42.5,106.5,41.5,106.5z"/>
	<path class="st2" d="M36.5,119.5c-1,0-6,3-8,4s-5,2-7,3s-2,2-2,2s-2,3-2,4s2-1,3-1s4-1,4-1s6-2,7-2c0.53,0,2.21,0.29,3.81,0.55
		l0.19-0.55c0,0,4.43-5.07,6.24-8.15c-0.84-0.13-1.77-0.38-2.24-0.85C38.5,118.5,37.5,119.5,36.5,119.5z"/>
	<path class="st3" d="M54.5,97.5l-5,2c0,0-2,1-5,2s-1,1-2,3s1,1,2,1s4,0,5,0c0.3,0,0.77,0,1.29,0.03c2.59-2.29,5.71-5.03,5.71-5.03
		l3.03-3.79L56.5,95.5L54.5,97.5z"/>
	<path class="st2" d="M23.5,148.5c0,0-5-1-6-1s-6,0-6,0l-4,2l2,4l5,3l4,2l4.6,1.53l0.4-1.53l3.71-8.05l-0.71-0.95L23.5,148.5z"/>
	<path class="st4" d="M17.5,224.5l-3-3l-4-8l-4-7l-1-4l1-1l3,3l3,4l3,3l2.86,2.86c-0.12-1.83-0.29-4.59-0.46-7.33
		c-0.88-0.76-1.9-1.53-2.4-1.53c-1,0-5-3-5-4s-4-4-4-4s-2-4-2-5s-1-5-1-6s0-4,0-4s0-2,1-1s2,5,3,5s6,6,6,6l4,3.2
		c0-1.61,0-3.62,0-5.62c-1.16-0.78-2.48-1.58-3-1.58c-1,0-7-6-7-6l-3-5v-6l1-3c0,0,1-1,2,0s3,5,3,5s2,3,3,3s4,3,4,3l0.44,0.3
		l1.3-4.99l-1.75-1.31l-3-1l-2-2c0,0-3-3-3-4s-3-4-3-4v-4l1-3l4,2l3,2c0,0,3,2,4,2s2,1,2,1l1.55,1.55l1.05-4.02l-4.6-1.53l-4-2l-5-3
		l-2-4l4-2c0,0,5,0,6,0s6,1,6,1l3,1l0.71,0.95l0.84-1.82l-3.55-2.13l-4-2h-5c0,0-2,0-3,0s-3-2-3-2l4-4c0,0,1-1,3-2s4-3,5-3s6-1,6-1
		h6l0.5,0.25l1.31-3.7c-1.6-0.27-3.27-0.55-3.81-0.55c-1,0-7,2-7,2s-3,1-4,1s-3,2-3,1s2-4,2-4s0-1,2-2s5-2,7-3s7-4,8-4s2-1,3,0
		c0.47,0.47,1.4,0.72,2.24,0.85c0.46-0.79,0.76-1.45,0.76-1.85c0-0.45,0.21-1.17,0.54-2c-1.78,0-3.92,0-4.54,0c-1,0-7,2-7,2
		s-4,2-5,2s-2-1-2-1l4-3l4-4l5-4c0,0,3-2,4-2s5,1,6,1c0.21,0,0.5,0.09,0.83,0.22c0.63-0.57,1.5-1.35,2.46-2.2
		c-0.52-0.03-0.99-0.03-1.29-0.03c-1,0-4,0-5,0s-3,1-2-1s-1-2,2-3s5-2,5-2l5-2l2-2l3.03,1.21l0.97-1.21l-0.7-2.81
		c-2.44,0.68-10.45,2.96-11.3,3.81c-1,1-13,8-15,10s-14,14-16,17s-9,13-9,13s-7,23-8,25s0,22,0,24S2,207,2,207l9,15
		c0,0,4.89,9.78,7.5,14.52v-11.77L17.5,224.5z"/>
	<path class="st5" d="M18.5,161.5c-1,0-4-2-4-2l-3-2l-4-2l-1,3v4c0,0,3,3,3,4s3,4,3,4l2,2l3,1l1.75,1.31l2.81-10.76l-1.55-1.55
		C20.5,162.5,19.5,161.5,18.5,161.5z"/>
	<path class="st6" d="M398.5,257.5c-1,0-6-6-6-6s-9-6-9-7s-12-8-12-8l-9-7l-8-5l-37-33l-8-8c0,0-5-5-6-6s-1-3-1-5s-1-4-2-5s-4-6-4-6
		l-4-2c0,0-10,5-10,6s-8,7-9,8s-9,9-9,9l-9,14c0,0-5,9-5,12s-3,7-3,9s3,7,3,7l5,3c0,0,3,0,5,0s7-1,9-2s4,1,4,2s2,3,3,4s6,3,8,4
		s4,3,6,4s5,2,7,3s8,5,8,5l13,10l3.12,3.12l79.19-0.11C399.85,258.89,398.92,257.5,398.5,257.5z M258.5,218.5c-1,2-4,2-4,2v-4
		c0-1,1-6,1-8s10-17,11-18s7-9,8-10s8-8,9-9s7-4,7-4s3-1,2,2s-1,5-2,5s-12,10-14,11s-10,12-10,13s-5,10-6,12
		S259.5,216.5,258.5,218.5z M329.5,259.5l-3-3c0,0-3-2-4-3s-5-3-7-4s-8-5-8-5s-5-4-7-5s-5-3-8-5s-6-3-9-4s-4-4-6-7s-3-3-5-3
		s-6-2-6-2s-1-3,0-4s3-4,4-6s3-4,4-5s5-3,5-3s0,6,0,7s2,5,4,7s3,4,5,7s6,5,9,6s6,4,9,7s9,5,11,7s11,7,15,9s10,5,10,5l4,4H329.5z
		 M390.5,258.5l-6-2c0,0-5-5-6-6s-14-7-14-7s-15-11-16-13s-11-10-12-11s-13-11-14-13s-11-7-11-7s-9-11-12-13s-5,1-8,0s-2-2-2-3
		s3-2,5-5s1-3,1-6s1-5,1-5l2,1c0,0,0,3,0,4s0,5,1,5s2,2,5,5s7,7,7,8s12,9,13,10s10,8,11,9s10,10,12,11s11,9,12,10s15,10,16,11
		s12,8,12,8l7,8L390.5,258.5z"/>
	<path class="st7" d="M7.5,186.5c-1,0-2-4-3-5s-1,1-1,1s0,3,0,4s1,5,1,6s2,5,2,5s4,3,4,4s4,4,5,4c0.51,0,1.52,0.77,2.4,1.53
		c-0.21-3.63-0.4-7.22-0.4-8.53c0-0.58,0-1.58,0-2.8l-4-3.2C13.5,192.5,8.5,186.5,7.5,186.5z"/>
	<path class="st8" d="M12.5,208.5l-3-4l-3-3l-1,1l1,4l4,7l4,8l3,3l1,0.25v-8.25c0,0-0.06-0.83-0.14-2.14l-2.86-2.86L12.5,208.5z"/>
	<path class="st9" d="M404.5,256.5l-7-6l-10-7l-6-5l-8-6c0,0-15-10-16-10s-12-11-12-11s-16-14-18-15s-11-10-11-10l-11-13l-1-5l-1-5
		l-4-2v-4c0,0,1-14,1-15s-3-14-3-16s-3-16-3-17s-5-13-5-13l-5-11l-5-12l-7-11l-12-15l-9-9l-23-19c0,0-25-12-26-12s-24-4-26-5
		s-20,0-20,0l-22,4l-14,5c0,0-12,7-13,7s-17,14-18,14s-12,12-13,14s-6,16-7,17s-5,15-5,15l-4,14c0,0-0.26,0.07-0.7,0.19l0.7,2.81
		l-0.97,1.21l1.97,0.79l-1.97-0.79l-3.03,3.79c0,0-3.12,2.73-5.71,5.03c1.23,0.06,2.71,0.27,2.71,0.97c0-0.7-1.48-0.91-2.71-0.97
		c-0.96,0.85-1.83,1.63-2.46,2.2c1.28,0.52,3.17,1.78,3.17,1.78s-1.89-1.26-3.17-1.78c-0.39,0.35-0.69,0.63-0.83,0.78
		c-0.77,0.77-3.34,5.14-4.46,8c1.11,0,2.08,0,2.46,0c-0.38,0-1.35,0-2.46,0c-0.33,0.83-0.54,1.55-0.54,2c0,0.41-0.3,1.07-0.76,1.85
		c0.93,0.14,1.76,0.15,1.76,0.15s-0.83,0-1.76-0.15c-1.81,3.08-6.24,8.15-6.24,8.15l-0.19,0.55c1.39,0.23,2.73,0.45,3.19,0.45
		c-0.47,0-1.8-0.22-3.19-0.45l-1.31,3.7l3.5,1.75l-3.5-1.75l-4.5,12.75l-1.45,3.13l1.45,0.87l-1.45-0.87l-0.84,1.82l2.29,3.05
		l-2.29-3.05l-3.71,8.05l-0.4,1.53l1.4,0.47l-1.4-0.47l-1.05,4.02l1.45,1.45l-1.45-1.45l-2.81,10.76l2.25,1.69l-2.25-1.69l-1.3,4.99
		l2.56,1.7l-2.56-1.7l-0.44,1.7c0,0,0,4.26,0,8.58c1.07,0.72,2,1.42,2,1.42s-0.93-0.69-2-1.42c0,2,0,4,0,5.62l1,0.8l2,1l-2-1l-1-0.8
		c0,1.22,0,2.22,0,2.8c0,1.31,0.19,4.89,0.4,8.53c0.86,0.74,1.6,1.47,1.6,1.47s-0.73-0.73-1.6-1.47c0.16,2.74,0.34,5.5,0.46,7.33
		l1.14,1.14l1,1l-1-1l-1.14-1.14c0.08,1.31,0.14,2.14,0.14,2.14v8.25l3,0.75l-3-0.75v11.77c0.73,1.33,1.28,2.26,1.5,2.48
		c1,1,7,11,8,12s13,10,13,10l280.62-0.38l-3.12-3.12l-13-10c0,0-6-4-8-5s-5-2-7-3s-4-3-6-4s-7-3-8-4s-3-3-3-4s-2-3-4-2s-7,2-9,2
		s-5,0-5,0l-5-3c0,0-3-5-3-7s3-6,3-9s5-12,5-12l9-14c0,0,8-8,9-9s9-7,9-8s10-6,10-6l4,2c0,0,3,5,4,6s2,3,2,5s0,4,1,5s6,6,6,6l8,8
		l37,33l8,5l9,7c0,0,12,7,12,8s9,7,9,7s5,6,6,6c0.42,0,1.35,1.39,2.3,3.01l6.7-0.01L404.5,256.5z M253.5,43.5v-2V43.5c1,0,3,3,3,3
		s6,6,6,7s2,5,2,5l1,8c0,0,1,1,2,1s3,0,3,0l2.74,0.68l1.26-1.68l-1.26,1.68l1.26,0.32c0,0,2,4,2,5s-2,2-2,2s-5,2-8,2s-3-1-4-2
		s-1-3-2-5s0-5-1-7s-3-6-3-7s-3-7-4-8s-2-5-2-5l-1-4C249.5,39.5,252.5,43.5,253.5,43.5z M242.5,35.5l3,4l4,10l3,6c0,0,2,3,3,5
		s3,11,3,11s0,3,1,4s4,5,4,5s4,1,5,0s6-4,7-3s1,0,2,2s3,5,3,5l2,3l-5,1c0,0-2,1-3,1s-6-1-7,0s-5,4-5,4s-2,1-3,0s-6-33-11-40
		s-9-17-11-20S242.5,35.5,242.5,35.5z M256.5,89.5c0,0-55-33-126-42l10-4c0,0,53,6,106,33c0,0,1-24-27-57
		C219.5,19.5,236.5,16.5,256.5,89.5z M237.5,216.5c-2,1-11,1-12,1s-10,2-11,2s-8,0-9,0s-5-1-6-1s-3-1-5-1s-3,1-5,1s-2-9-2-10
		s2-3,3-3s6,2,8,2s7,1,11,1s5,1,10,1s6,0,11,0s9,1,10,1s3-1,4,0s-1,5-1,5S239.5,215.5,237.5,216.5z M243.5,218.5c0,2-1,5-1,5
		s-4,1-6,2s-12,3-13,3s-4,2-8,2s-12,1-12,1s-6,0-9,0s-4,1-5,0s-2-4-2-4v-6c0,0,5-1,9,0s17,1,22,0s13-2,13-2s8-1,9-1
		S243.5,216.5,243.5,218.5z M242.5,207.5h-11l-18-1c0,0-12-2-13-2s-8-1-10-2s-1-2-2-3s2-8,2-8l4-5l7,4c0,0,8,3,9,3s11,4,11,4
		s10,1,11,2s10,2,11,2s3,1,3,2s0,4,0,4H242.5z M178.5,182.5c-61-113-55-130-55-130c0-2,3-2,3-2c61,3,125,40,125,40l3,2v2l-2,1
		C196.5,121.5,178.5,182.5,178.5,182.5z M162.5,201.5c0-1-5-3-6-3s-7,0-7,0s-17,0-20-1s-13-1-15-1s-8-2-9-2s-6-1-6-1l-3-3l-4-4l-2-3
		c0,0,6,1,24,6s55,5,56,4s5,0,5,0l1,2c0,0-3,26-3,29s-2,6-2,6h-4l-4-1c0,0,0-23,0-25S162.5,202.5,162.5,201.5z M150.5,208.5
		c0-1-3-1-5-1s-12,0-15,0s-7,2-9,3s-6-1-7-1s-4-3-4-3l-7-6l1-4l7,2c0,0,2,0,5,1s6,0,6,0h4c0,0,5,1,6,1s14,1,17,0s6,0,7,0s3,2,3,2
		s1,6,1,7s0,18,0,19s-5,0-6-1s-3-2-4-3s0-3,0-3s2-6,2-8S150.5,209.5,150.5,208.5z M158.5,180.5c-35,5-75-12-75-12c-6,0-7-7-7-7
		c-11-46,33-96,33-96C105.5,79.5,158.5,180.5,158.5,180.5z M112.5,61.5l7-5c1,25,56,130,56,130l-1,4c-35,7-89-11-89-11l-2-7
		c69,21,80,9,80,9C119.5,102.5,112.5,61.5,112.5,61.5z M91.5,189.5c8,8,3,7,3,7l-6-6c0,0-17-14-21-19s6-6,6-6
		C74.5,169.5,83.5,181.5,91.5,189.5z M70.5,162.5l-4,1c0,0-1,0-3,4s0,5,0,5c4,1,39,34,39,34s7,6,8,6s6,5,7,6s1,2,2,1s0-2,1-2
		s1-2,2-2s2,0,2,1s3,2,3,3s1,3,1,3l-2,3l-2,2l-4-1c-12-2-58-44-58-44l-5-6l-5-5l-1-5l1-5l3-3c0,0,3-1,4-1s6-1,6-1l4-1c0,0,2,1,3,2
		s1,2,1,2l1,3H70.5z M216.5,18.5c29,36,27,54,26,53s-67-27-81-27s-17-5-17-5C171.5,17.5,216.5,18.5,216.5,18.5z M181.3,5.76
		c0.96,0.3,2.53,0.74,3.2,0.74c1,0,12,2,12,2l7,3c0,0,0,2-1,2s-5,0-6,1s-6,1-6,1s-1-2-2-5C187.71,8.12,183.17,6.38,181.3,5.76
		c-0.47-0.15-0.8-0.26-0.8-0.26S180.81,5.59,181.3,5.76z M160.5,5.5c1,0,13,2,14,2s8,2,9,2s5,5,5,6c0,0-12,3-11,0s-24-8-24-9
		S159.5,5.5,160.5,5.5z M149.5,9.5c0,0,19,3,21,4s2,4,2,4l-9,1v-2c0,0-5-3-7-3s-9-1-9-1l-6-3H149.5z M125.5,13.5c0,0,6,0,10-1
		s25,6,25,6s-1,3-3,4s-5,2-5,2c-1-2-22-6-23-6s-9-1-10-2S125.5,13.5,125.5,13.5z M114.5,19.5l9,1l24,4l-6,5l-4-1c0,0-18-4-23-5
		S114.5,19.5,114.5,19.5z M106.5,23.5l30,7l-1,3l-12,7l-17-13V23.5z M118.5,43.5l-6,5l-9-20L118.5,43.5z M100.5,30.5c0,0,9,19,9,20
		s-1,4-2,6s-5,3-5,3h-2l-2-7c0,0-1-19-1-20S100.5,30.5,100.5,30.5z M88.5,59.5c0-1,0-12,0-14s1-6,1-6s2-2,2-3s4-1,4-1v4c0,0-1,8-1,9
		s1,5,2,8s1,5,2,7s-1,2-2,4s-4,4-5,5c0,0-3-5-3-6S88.5,60.5,88.5,59.5z M79.5,54.5c1-1,5-6,5-6l1-4c0,0,0,23,0,24s4,7,4,7l-1,7l-4,4
		c-1,0-4,0-5-1S78.5,55.5,79.5,54.5z M71.5,66.5c0-1,3-9,4-9s1,2,1,3s0,17,0,17s0,8,0,9s2,4,3,5s0,5,0,5l-3,4l-2-1v-9c0,0-2-15-3-17
		S71.5,67.5,71.5,66.5z M64.5,90.5c0,0,2-11,2-12s3-1,3-1c0,3,4,32,4,34s-2,5-2,7s-3,8-3,10s-2-3-2-4s-2-10-2-10V90.5z M62.5,121.5
		c1,1,2,2,2,3s0,2,0,3s-1,2-1,2h-4c0,0-1,0-1-2s2-4,2-4S61.5,120.5,62.5,121.5z M42.5,135.5c0-1,2-4,2-4s4-7,4-8s4-7,4-7l4-4l4-2
		c0,0,1,2,1,4s-1,4-1,5s-3,3-3,3s-1,3-2,4s0,5,2,5s4,3,5,3s-1,1-1,1s-4-1-7-1s-5,1-6,2s-5,1-6,1S42.5,136.5,42.5,135.5z M33.5,154.5
		c0-1,0-4,0-4l3-3c0,0,3-4,4-4s3-2,4-3s5-1,6-2s6-1,6-1h5l4,1c0,0,0,1,0,2s2,3,2,5s1,2,1,2s-3,1-4,1s-8,1-10,2s-7,1-11,2s-5,3-6,3
		s-4,2-4,2S33.5,155.5,33.5,154.5z M44.5,258.5c-6-2-10-5-10-6s-4-7-5-13s-5-30-5-40s0-23,2-21s77,68,80,66
		C106.5,244.5,50.5,260.5,44.5,258.5z M133.5,258.5c0,0-22,1-18,0s19-7,19-7C136.5,256.5,133.5,258.5,133.5,258.5z M132.5,250.5
		l-21,7l-9,2c0,0-55-1-43-2s54-13,54-13c-14-1-83-65-83-65l-3-6c0,0,0-5,0-6s2-2,2-3s4,0,4,0c3,19,96,81,96,81l6,3L132.5,250.5z
		 M133.5,243.5c-2,1-27-17-27-17c-8-5-51-40-52-41s-6-5-6-5l-7-8l-5-5l-2-4v-3c0,0,3-3,4-3s5-2,6-2s7-2,7-2l10-2c0,0,8-2,9-2v3l-2,1
		l-7,1l-5,1c0,0-4,2-5,3s-3,5-3,5l-1,4l2,5c3,10,67,56,67,56l8,3l3-1l5-9l8,6C140.5,227.5,135.5,242.5,133.5,243.5z M141.5,224.5
		c0,0-1-1-2-1s-2-2-2-2s-1-1-2-1s-3-1-4-2s-2-1-2-1l4-1h4l3,1l1,3V224.5z M145.5,224.5c-2,1-1,0-1,0l-1-2c0,0,0-2,0-3s-1-3-1-3l-1-1
		c0,0-2-1-3-1s-7,1-9,0s-3-1-3-1l-3-2c0,0,7-1,8-2s5,0,6,0s6,0,7,0s4,1,4,1h1v5c0,0-1,3-2,5S147.5,223.5,145.5,224.5z M149.5,236.5
		c0-2,3-4,5-5s5,0,7,1s7,2,9,2s5,2,7,2s9,1,12,1s9-2,9-2l-7,7c0,0-7,2-11,3s-8,0-13,1s-8,1-13,0s-4-1-6-4S149.5,238.5,149.5,236.5z
		 M162.5,258.5c-1,0-10-1-12-1s-2-1-2-1s0-3,0-4s1-4,2-4s6,2,6,2s6-1,8-1s8,0,8,0s11-2,13-2s4-1,6-1c0,0-2,4-3,4s-4,3-6,4s-7,6-9,6
		S163.5,258.5,162.5,258.5z M193.5,254.5c-1,2-1,3-2,3s-3,2-4,2s-1,0-3,0s-4,0-4,0l2-2l10-5C192.5,252.5,194.5,252.5,193.5,254.5z
		 M205.5,251.5c-1,3,0,5,0,7s-2,0-3,0s-2,0-2,0l-1-1l-1-3c0,0,0-3,0-4s0-4,1-5s2-6,2-6s2-3,3-4s4,0,4,0l2,3c0,0-2,2-3,5
		S206.5,248.5,205.5,251.5z M249.5,229.5c0,0,4,0,5,0s0,0,6,0s6,0,6,0s37,22,38,23s5,3,6,5s1,2,1,2s-71,0-76-1s-3-1-6-2s-3-1-6-3
		s-2-2-3-4s-2-3-3-4s-1,0-1,1s-3,5-4,8s-1,4-1,4s-2,0-2-1s-1-3-1-5s1-5,2-7s2-6,2-6s3-4,5-5s5-2,5-2l8-2c0,0,4-1,6-2s4-1,7-2
		s3-1,3-1L249.5,229.5z M250.5,198.5c-1,1-1,2-2,2s-9-2-9-2s-9-3-11-3s-9-2-9-2s-9-3-10-4s-6-2-8-3s-5-2-6-3s-2-3-1-4s3-6,3-6l2-2
		l3,3l6,4c0,0,10,6,11,6s6,1,8,2s7,5,9,5s6,3,8,3s5,0,5,1S251.5,197.5,250.5,198.5z M252.5,192.5c0,1-4,0-4,0s-4-1-6-1s-4-2-5-3
		s-5-3-6-3s-6-3-8-3s-5-3-6-3s-5-3-8-5s-4-3-6-4s-3-4-3-4s2-5,3-7s4-3,4-3c1,2,32,23,33,24s12,6,13,6s1,3,1,3
		S252.5,191.5,252.5,192.5z M257.5,184.5c-6,4-49-32-49-33s1-3,2-4s4-5,4-5h3c5,8,28,27,29,28s11,8,12,9S263.5,180.5,257.5,184.5z
		 M260.5,177.5c-3,1-35-30-35-31s-4-3-5-4s-1-4-1-4l2-4l8-6c6,1,27,30,27,30s9,9,10,14S263.5,176.5,260.5,177.5z M270.5,171.5l-2-1
		c-1-5-25-35-25-35l-6-5l-3-2l-1-3c0,0,1-2,2-3s5-3,5-3h3c8,2,29,50,29,50L270.5,171.5z M275.5,166.5c-1,0-2,0-2,0c-2-4-14-30-14-31
		s-5-9-5-9l-5-7l-3-3l2-3c0,0,5-4,6-4s6-2,6-2c9,11,19,57,19,57S276.5,166.5,275.5,166.5z M286.5,159.5l-2,2c0,0-1,2-2,1s-2-5-2-5
		s-11-45-17-52l3-2c0,0,2-2,4-1s4,3,5,4S288.5,147.5,286.5,159.5z M291.5,158.5c-1,0-3-3-3-3s-6-44-11-50s-2-4-2-4c1-1,5-2,5-2
		s3-1,3,2s8,9,9,54C292.5,155.5,292.5,158.5,291.5,158.5z M296.5,145.5c0,0-3-6-3-7s-1-17-2-19s-5-13-5-13l-1-7l1-1c0,1,3,5,3,5l2,7
		c0,0,2,6,2,7s2,9,2,9s1,6,1,8S296.5,145.5,296.5,145.5z"/>
	<path class="st2" d="M13.5,176.5c-1,0-3-3-3-3s-2-4-3-5s-2,0-2,0l-1,3v6l3,5c0,0,6,6,7,6c0.52,0,1.84,0.81,3,1.58
		c0-4.32,0-8.58,0-8.58l0.44-1.7l-0.44-0.3C17.5,179.5,14.5,176.5,13.5,176.5z"/>
	<path class="st10" d="M42.5,137.5c1,0,5,0,6-1s3-2,6-2s7,1,7,1s2-1,1-1s-3-3-5-3s-3-4-2-5s2-4,2-4s3-2,3-3s1-3,1-5s-1-4-1-4l-4,2
		l-4,4c0,0-4,6-4,7s-4,8-4,8s-2,3-2,4S41.5,137.5,42.5,137.5z"/>
	<path class="st11" d="M58.5,127.5c0,2,1,2,1,2h4c0,0,1-1,1-2s0-2,0-3s-1-2-2-3s-2,2-2,2S58.5,125.5,58.5,127.5z"/>
	<path class="st12" d="M43.5,152.5c4-1,9-1,11-2s9-2,10-2s4-1,4-1s-1,0-1-2s-2-4-2-5s0-2,0-2l-4-1h-5c0,0-5,0-6,1s-5,1-6,2s-3,3-4,3
		s-4,4-4,4l-3,3c0,0,0,3,0,4s0,3,0,3s3-2,4-2S39.5,153.5,43.5,152.5z"/>
	<path class="st13" d="M127.5,230.5l-3,1l-8-3c0,0-64-46-67-56l-2-5l1-4c0,0,2-4,3-5s5-3,5-3l5-1l7-1l2-1v-3c-1,0-9,2-9,2l-10,2
		c0,0-6,2-7,2s-5,2-6,2s-4,3-4,3v3l2,4l5,5l7,8c0,0,5,4,6,5s44,36,52,41c0,0,25,18,27,17s7-16,7-16l-8-6L127.5,230.5z"/>
	<path class="st14" d="M72.5,157.5c-1-1-3-2-3-2l-4,1c0,0-5,1-6,1s-4,1-4,1l-3,3l-1,5l1,5l5,5l5,6c0,0,46,42,58,44l4,1l2-2l2-3
		c0,0-1-2-1-3s-3-2-3-3s-1-1-2-1s-1,2-2,2s0,1-1,2s-1,0-2-1s-6-6-7-6s-8-6-8-6s-35-33-39-34c0,0-2-1,0-5s3-4,3-4l4-1h4l-1-3
		C73.5,159.5,73.5,158.5,72.5,157.5z"/>
	<path class="st15" d="M33.5,164.5c0,0-4-1-4,0s-2,2-2,3s0,6,0,6l3,6c0,0,69,64,83,65c0,0-42,12-54,13s43,2,43,2l9-2l21-7l3-2l-6-3
		C129.5,245.5,36.5,183.5,33.5,164.5z"/>
	<path class="st16" d="M26.5,178.5c-2-2-2,11-2,21s4,34,5,40s5,12,5,13s4,4,10,6s62-14,62-14C103.5,246.5,28.5,180.5,26.5,178.5z
		 M91.5,243.5c-2,2-14,4-14,4s-32,6-37,5s-8-22-8-22c-2-11,1-30,1-31s1-3,1-3l2-1c3,0,40,35,40,35C97.5,241.5,91.5,243.5,91.5,243.5
		z"/>
	<path class="st17" d="M76.5,230.5c0,0-37-35-40-35l-2,1c0,0-1,2-1,3s-3,20-1,31c0,0,3,21,8,22s37-5,37-5s12-2,14-4
		C91.5,243.5,97.5,241.5,76.5,230.5z M42.5,246.5c-4,0-3-39-3-39c1,3,36,30,39,32S46.5,246.5,42.5,246.5z"/>
	<path class="st18" d="M39.5,207.5c0,0-1,39,3,39s39-5,36-7S40.5,210.5,39.5,207.5z M44.5,243.5c-2,1-2-28-2-28c3-1,27,21,29,23
		S46.5,242.5,44.5,243.5z"/>
	<path class="st19" d="M42.5,215.5c0,0,0,29,2,28s29-3,27-5S45.5,214.5,42.5,215.5z M47.5,237.5c-2,0,0-13,0-13c2,0,12,9,12,11
		S49.5,237.5,47.5,237.5z"/>
	<path class="st20" d="M47.5,224.5c0,0-2,13,0,13s12,0,12-2S49.5,224.5,47.5,224.5z M50.5,235.5c-2,1,0-5,0-5c3,1,5,4,5,4
		S52.5,234.5,50.5,235.5z"/>
	<path class="st21" d="M50.5,230.5c0,0-2,6,0,5s5-1,5-1S53.5,231.5,50.5,230.5z"/>
	<path class="st22" d="M68.5,128.5c0-2,3-8,3-10s2-5,2-7s-4-31-4-34c0,0-3,0-3,1s-2,12-2,12v24c0,0,2,9,2,10S68.5,130.5,68.5,128.5z
		"/>
	<path class="st23" d="M74.5,90.5v9l2,1l3-4c0,0,1-4,0-5s-3-4-3-5s0-9,0-9s0-16,0-17s0-3-1-3s-4,8-4,9s-1,5,0,7S74.5,90.5,74.5,90.5
		z"/>
	<path class="st24" d="M84.5,86.5l4-4l1-7c0,0-4-6-4-7s0-24,0-24l-1,4c0,0-4,5-5,6s-1,30,0,31S83.5,86.5,84.5,86.5z"/>
	<path class="st25" d="M96.5,67.5c1-2,3-2,2-4s-1-4-2-7s-2-7-2-8s1-9,1-9v-4c0,0-4,0-4,1s-2,3-2,3s-1,4-1,6s0,13,0,14s0,6,0,7
		s3,6,3,6C92.5,71.5,95.5,69.5,96.5,67.5z"/>
	<path class="st26" d="M100.5,59.5h2c0,0,4-1,5-3s2-5,2-6s-9-20-9-20s-3,1-3,2s1,20,1,20L100.5,59.5z"/>
	<polygon class="st27" points="118.5,43.5 103.5,28.5 112.5,48.5 	"/>
	<polygon class="st28" points="135.5,33.5 136.5,30.5 106.5,23.5 106.5,27.5 123.5,40.5 	"/>
	<path class="st29" d="M114.5,23.5c5,1,23,5,23,5l4,1l6-5l-24-4l-9-1C114.5,19.5,109.5,22.5,114.5,23.5z"/>
	<path class="st30" d="M129.5,18.5c1,0,22,4,23,6c0,0,3-1,5-2s3-4,3-4s-21-7-25-6s-10,1-10,1s-7,2-6,3S128.5,18.5,129.5,18.5z"/>
	<path class="st31" d="M156.5,13.5c2,0,7,3,7,3v2l9-1c0,0,0-3-2-4s-21-4-21-4h-8l6,3C147.5,12.5,154.5,13.5,156.5,13.5z"/>
	<path class="st32" d="M177.5,15.5c-1,3,11,0,11,0c0-1-4-6-5-6s-8-2-9-2s-13-2-14-2s-7,0-7,1S178.5,12.5,177.5,15.5z"/>
	<path class="st33" d="M188.5,10.5c1,3,2,5,2,5s5,0,6-1s5-1,6-1s1-2,1-2l-7-3c0,0-11-2-12-2c-0.67,0-2.23-0.45-3.2-0.74
		C183.17,6.38,187.71,8.12,188.5,10.5z"/>
	<path class="st34" d="M180.5,5.5c0,0,0.33,0.11,0.8,0.26C180.81,5.59,180.5,5.5,180.5,5.5z"/>
	<path class="st35" d="M76.5,161.5c0,0,1,7,7,7c0,0,40,17,75,12c0,0-53-101-49-115C109.5,65.5,65.5,115.5,76.5,161.5z M144.5,164.5
		c0,0,3,4,4,5s2,3,2,3l-1,3c-55,4-70-15-70-15c-4-36,25-74,25-74h2c0,0,3,1,2,4S144.5,164.5,144.5,164.5z"/>
	<path class="st36" d="M108.5,90.5c1-3-2-4-2-4h-2c0,0-29,38-25,74c0,0,15,19,70,15l1-3c0,0-1-2-2-3s-4-5-4-5S107.5,93.5,108.5,90.5
		z M145.5,172.5c-49,6-63-14-63-14c-4-28,22-66,22-66C104.5,90.5,145.5,172.5,145.5,172.5z"/>
	<path class="st37" d="M104.5,92.5c0,0-26,38-22,66c0,0,14,20,63,14C145.5,172.5,104.5,90.5,104.5,92.5z M88.5,154.5
		c-4-17,16-48,16-48c5,13,34,61,34,61C86.5,167.5,88.5,154.5,88.5,154.5z"/>
	<path class="st38" d="M88.5,154.5c0,0-2,13,50,13c0,0-29-48-34-61C104.5,106.5,84.5,137.5,88.5,154.5z M92.5,153.5
		c-6-11,12-40,12-40c-1,2,27,50,27,50C94.5,164.5,92.5,153.5,92.5,153.5z"/>
	<path class="st39" d="M104.5,113.5c0,0-18,29-12,40c0,0,2,11,39,10C131.5,163.5,103.5,115.5,104.5,113.5z M119.5,154.5
		c-3,2-19-1-21-6s5-18,5-18S122.5,152.5,119.5,154.5z"/>
	<path class="st40" d="M98.5,148.5c2,5,18,8,21,6s-16-24-16-24S96.5,143.5,98.5,148.5z M113.5,150.5l-12-4l3-10L113.5,150.5z"/>
	<polygon class="st41" points="113.5,150.5 104.5,136.5 101.5,146.5 	"/>
	<path class="st42" d="M83.5,172.5l2,7c0,0,54,18,89,11l1-4c0,0-55-105-56-130l-7,5c0,0,7,41,51,120
		C163.5,181.5,152.5,193.5,83.5,172.5z"/>
	<path class="st43" d="M252.5,95.5l2-1v-2l-3-2c0,0-64-37-125-40c0,0-3,0-3,2c0,0-6,17,55,130C178.5,182.5,196.5,121.5,252.5,95.5z
		 M178.5,157.5c0,4-7,3-7,3c-13-12-40-86-41-89s-1-5-1-5l4-4l2-2c47,1,97,26,97,26c7,7-2,13-2,13
		C213.5,105.5,178.5,153.5,178.5,157.5z"/>
	<path class="st36" d="M232.5,86.5c0,0-50-25-97-26l-2,2l-4,4c0,0,0,2,1,5s28,77,41,89c0,0,7,1,7-3s35-52,52-58
		C230.5,99.5,239.5,93.5,232.5,86.5z M177.5,152.5c-2,6-6,3-6,3c-8-3-39-84-39-87s4-4,4-4c52,0,93,25,93,25c3,3-1,8-1,8
		C213.5,101.5,177.5,152.5,177.5,152.5z"/>
	<path class="st44" d="M229.5,89.5c0,0-41-25-93-25c0,0-4,1-4,4s31,84,39,87c0,0,4,3,6-3c0,0,36-51,51-55
		C228.5,97.5,232.5,92.5,229.5,89.5z M217.5,99.5c-19,10-31,29-31,29s-10,19-14,20s-29-64-31-70s3-7,3-7c18,1,75,18,75,18
		C225.5,94.5,217.5,99.5,217.5,99.5z"/>
	<path class="st45" d="M219.5,89.5c0,0-57-17-75-18c0,0-5,1-3,7s27,71,31,70s14-20,14-20s12-19,31-29
		C217.5,99.5,225.5,94.5,219.5,89.5z M216.5,97.5c-27,11-40,41-40,41c-2,7-4,4-4,4c-13-21-27-66-27-66s-3-2,3-2s61,15,67,17
		S216.5,97.5,216.5,97.5z"/>
	<path class="st46" d="M215.5,91.5c-6-2-61-17-67-17s-3,2-3,2s14,45,27,66c0,0,2,3,4-4c0,0,13-30,40-41
		C216.5,97.5,221.5,93.5,215.5,91.5z M197.5,105.5c0,0-18,12-21,22s-6,1-6,1s-12-26-16-38s6-7,6-7c3,4,20,9,20,9s12,0,18,4
		S197.5,105.5,197.5,105.5z"/>
	<path class="st47" d="M198.5,96.5c-6-4-18-4-18-4s-17-5-20-9c0,0-10-5-6,7s16,38,16,38s3,9,6-1s21-22,21-22S204.5,100.5,198.5,96.5
		z M195.5,104.5c-6,2-18,17-18,17s-3,4-5,5s-14-34-14-34l-2-4l1-2h3c4,3,18,8,21,8s10,2,15,4S195.5,104.5,195.5,104.5z"/>
	<path class="st48" d="M196.5,98.5c-5-2-12-4-15-4s-17-5-21-8h-3l-1,2l2,4c0,0,12,35,14,34s5-5,5-5s12-15,18-17
		C195.5,104.5,201.5,100.5,196.5,98.5z M187.5,102.5c0,0-10,6-12,11s-4,3-4,3c-1-6-7-18-7-18l-1-3l1-1c4-1,19,4,23,5
		S187.5,102.5,187.5,102.5z"/>
	<path class="st49" d="M187.5,99.5c-4-1-19-6-23-5l-1,1l1,3c0,0,6,12,7,18c0,0,2,2,4-3s12-11,12-11S191.5,100.5,187.5,99.5z
		 M182.5,102.5c-3,0-9,11-9,9s-5-13-5-13c0-2,7,1,10,1S185.5,102.5,182.5,102.5z"/>
	<path class="st50" d="M178.5,99.5c-3,0-10-3-10-1c0,0,5,11,5,13s6-9,9-9S181.5,99.5,178.5,99.5z"/>
	<path class="st51" d="M67.5,171.5c4,5,21,19,21,19l6,6c0,0,5,1-3-7s-17-20-18-24C73.5,165.5,63.5,166.5,67.5,171.5z"/>
	<path class="st52" d="M167.5,230.5h4c0,0,2-3,2-6s3-29,3-29l-1-2c0,0-4-1-5,0s-38,1-56-4s-24-6-24-6l2,3l4,4l3,3c0,0,5,1,6,1
		s7,2,9,2s12,0,15,1s20,1,20,1s6,0,7,0s6,2,6,3s1,1,1,3s0,25,0,25L167.5,230.5z"/>
	<path class="st53" d="M150.5,224.5c1,1,3,2,4,3s6,2,6,1s0-18,0-19s-1-7-1-7s-2-2-3-2s-4-1-7,0s-16,0-17,0s-6-1-6-1h-4c0,0-3,1-6,0
		s-5-1-5-1l-7-2l-1,4l7,6c0,0,3,3,4,3s5,2,7,1s6-3,9-3s13,0,15,0s5,0,5,1s2,3,2,5s-2,8-2,8S149.5,223.5,150.5,224.5z"/>
	<path class="st54" d="M149.5,210.5h-1c0,0-3-1-4-1s-6,0-7,0s-5-1-6,0s-8,2-8,2l3,2c0,0,1,0,3,1s8,0,9,0s3,1,3,1l1,1c0,0,1,2,1,3
		s0,3,0,3l1,2c0,0-1,1,1,0s1-2,2-4s2-5,2-5V210.5z"/>
	<path class="st55" d="M137.5,216.5h-4l-4,1c0,0,1,0,2,1s3,2,4,2s2,1,2,1s1,2,2,2s2,1,2,1v-4l-1-3L137.5,216.5z"/>
	<path class="st56" d="M115.5,258.5c-4,1,18,0,18,0s3-2,1-7C134.5,251.5,119.5,257.5,115.5,258.5z"/>
	<path class="st57" d="M154.5,246.5c5,1,8,1,13,0s9,0,13-1s11-3,11-3l7-7c0,0-6,2-9,2s-10-1-12-1s-5-2-7-2s-7-1-9-2s-5-2-7-1
		s-5,3-5,5s-3,3-1,6S149.5,245.5,154.5,246.5z"/>
	<path class="st58" d="M188.5,250.5c1,0,3-4,3-4c-2,0-4,1-6,1s-13,2-13,2s-6,0-8,0s-8,1-8,1s-5-2-6-2s-2,3-2,4s0,4,0,4s0,1,2,1
		s11,1,12,1s9,2,11,2s7-5,9-6S187.5,250.5,188.5,250.5z"/>
	<path class="st59" d="M192.5,252.5l-10,5l-2,2c0,0,2,0,4,0s2,0,3,0s3-2,4-2s1-1,2-3S192.5,252.5,192.5,252.5z"/>
	<path class="st60" d="M208.5,235.5c0,0-3-1-4,0s-3,4-3,4s-1,5-2,6s-1,4-1,5s0,4,0,4l1,3l1,1c0,0,1,0,2,0s3,2,3,0s-1-4,0-7s1-5,2-8
		s3-5,3-5L208.5,235.5z"/>
	<path class="st61" d="M243.5,226.5c-3,1-5,1-7,2s-6,2-6,2l-8,2c0,0-3,1-5,2s-5,5-5,5s-1,4-2,6s-2,5-2,7s1,4,1,5s2,1,2,1s0-1,1-4
		s4-7,4-8s0-2,1-1s2,2,3,4s0,2,3,4s3,2,6,3s1,1,6,2s76,1,76,1s0,0-1-2s-5-4-6-5s-38-23-38-23s0,0-6,0s-5,0-6,0s-5,0-5,0l-3-4
		C246.5,225.5,246.5,225.5,243.5,226.5z M254.5,233.5c1,0,4,1,4,1s3,0,4,1s4,2,6,4s6,2,8,3s5,1,7,2s3,4,3,4h-1c0,0-3-1-6-1s-6-1-9-2
		s-5-2-8-4s-2-1-4-2s-5,0-6,0s-9,0-10-2s2-3,3-4s2-1,4-1S253.5,233.5,254.5,233.5z"/>
	<path class="st62" d="M242.5,237.5c1,2,9,2,10,2s4-1,6,0s1,0,4,2s5,3,8,4s6,2,9,2s6,1,6,1h1c0,0-1-3-3-4s-5-1-7-2s-6-1-8-3
		s-5-3-6-4s-4-1-4-1s-3-1-4-1s-3-1-5-1s-3,0-4,1S241.5,235.5,242.5,237.5z"/>
	<path class="st63" d="M276.5,185.5c2-1,13-11,14-11s1-2,2-5s-2-2-2-2s-6,3-7,4s-8,8-9,9s-7,9-8,10s-11,16-11,18s-1,7-1,8v4
		c0,0,3,0,4-2s1-6,2-8s6-11,6-12S274.5,186.5,276.5,185.5z"/>
	<path class="st64" d="M375.5,241.5c-1-1-15-10-16-11s-10-9-12-10s-11-10-12-11s-10-8-11-9s-13-9-13-10s-4-5-7-8s-4-5-5-5s-1-4-1-5
		s0-4,0-4l-2-1c0,0-1,2-1,5s1,3-1,6s-5,4-5,5s-1,2,2,3s5-2,8,0s12,13,12,13s10,5,11,7s13,12,14,13s11,9,12,11s16,13,16,13s13,6,14,7
		s6,6,6,6l6,2l4-1l-7-8C387.5,249.5,376.5,242.5,375.5,241.5z"/>
	<path class="st65" d="M332.5,250.5c-4-2-13-7-15-9s-8-4-11-7s-6-6-9-7s-7-3-9-6s-3-5-5-7s-4-6-4-7s0-7,0-7s-4,2-5,3s-3,3-4,5
		s-3,5-4,6s0,4,0,4s4,2,6,2s3,0,5,3s3,6,6,7s6,2,9,4s6,4,8,5s7,5,7,5s6,4,8,5s6,3,7,4s4,3,4,3l3,3h17l-4-4
		C342.5,255.5,336.5,252.5,332.5,250.5z"/>
	<path class="st66" d="M240.5,218.5c-1,0-9,1-9,1s-8,1-13,2s-18,1-22,0s-9,0-9,0v6c0,0,1,3,2,4s2,0,5,0s9,0,9,0s8-1,12-1s7-2,8-2
		s11-2,13-3s6-2,6-2s1-3,1-5S241.5,218.5,240.5,218.5z"/>
	<path class="st67" d="M244.5,210.5c-1-1-3,0-4,0s-5-1-10-1s-6,0-11,0s-6-1-10-1s-9-1-11-1s-7-2-8-2s-3,2-3,3s0,10,2,10s3-1,5-1
		s4,1,5,1s5,1,6,1s8,0,9,0s10-2,11-2s10,0,12-1s6-1,6-1S245.5,211.5,244.5,210.5z"/>
	<path class="st68" d="M246.5,203.5c0-1-2-2-3-2s-10-1-11-2s-11-2-11-2s-10-4-11-4s-9-3-9-3l-7-4l-4,5c0,0-3,7-2,8s0,2,2,3s9,2,10,2
		s13,2,13,2l18,1h11h4C246.5,207.5,246.5,204.5,246.5,203.5z"/>
	<path class="st69" d="M244.5,194.5c-2,0-6-3-8-3s-7-4-9-5s-7-2-8-2s-11-6-11-6l-6-4l-3-3l-2,2c0,0-2,5-3,6s0,3,1,4s4,2,6,3s7,2,8,3
		s10,4,10,4s7,2,9,2s11,3,11,3s8,2,9,2s1-1,2-2s-1-2-1-3S246.5,194.5,244.5,194.5z"/>
	<path class="st70" d="M253.5,186.5c-1,0-12-5-13-6s-32-22-33-24c0,0-3,1-4,3s-3,7-3,7s1,3,3,4s3,2,6,4s7,5,8,5s4,3,6,3s7,3,8,3
		s5,2,6,3s3,3,5,3s6,1,6,1s4,1,4,0s2-3,2-3S254.5,186.5,253.5,186.5z"/>
	<path class="st71" d="M258.5,179.5c-1-1-11-8-12-9s-24-20-29-28h-3c0,0-3,4-4,5s-2,3-2,4s43,37,49,33S259.5,180.5,258.5,179.5z"/>
	<path class="st72" d="M256.5,158.5c0,0-21-29-27-30l-8,6l-2,4c0,0,0,3,1,4s5,3,5,4s32,32,35,31s7,0,6-5S256.5,158.5,256.5,158.5z"
		/>
	<path class="st73" d="M243.5,119.5h-3c0,0-4,2-5,3s-2,3-2,3l1,3l3,2l6,5c0,0,24,30,25,35l2,1l2-2
		C272.5,169.5,251.5,121.5,243.5,119.5z"/>
	<path class="st74" d="M254.5,109.5c-1,0-6,4-6,4l-2,3l3,3l5,7c0,0,5,8,5,9s12,27,14,31c0,0,1,0,2,0s4-2,4-2s-10-46-19-57
		C260.5,107.5,255.5,109.5,254.5,109.5z"/>
	<path class="st75" d="M270.5,102.5c-2-1-4,1-4,1l-3,2c6,7,17,52,17,52s1,4,2,5s2-1,2-1l2-2c2-12-10-52-11-53
		S272.5,103.5,270.5,102.5z"/>
	<path class="st76" d="M280.5,99.5c0,0-4,1-5,2c0,0-3-2,2,4s11,50,11,50s2,3,3,3s1-3,1-3c-1-45-9-51-9-54S280.5,99.5,280.5,99.5z"/>
	<path class="st77" d="M293.5,117.5c0-1-2-7-2-7l-2-7c0,0-3-4-3-5l-1,1l1,7c0,0,4,11,5,13s2,18,2,19s3,7,3,7s0-9,0-11s-1-8-1-8
		S293.5,118.5,293.5,117.5z"/>
	<path class="st78" d="M248.5,53.5c5,7,10,39,11,40s3,0,3,0s4-3,5-4s6,0,7,0s3-1,3-1l5-1l-2-3c0,0-2-3-3-5s-1-1-2-2s-6,2-7,3
		s-5,0-5,0s-3-4-4-5s-1-4-1-4s-2-9-3-11s-3-5-3-5l-3-6l-4-10l-3-4c0,0-7-5-5-2S243.5,46.5,248.5,53.5z"/>
	<path class="st79" d="M252.5,48.5c1,1,4,7,4,8s2,5,3,7s0,5,1,7s1,4,2,5s1,2,4,2s8-2,8-2s2-1,2-2s-2-5-2-5l-1.26-0.32l-1.74,2.32
		l-3,1l-3-2c0,0-2-2-2-3s-1-3-2-5s-1-5-2-7s-2-3-3-3s-3-6-3-6v-2c-1,0-4-4-4-4l1,4C250.5,43.5,251.5,47.5,252.5,48.5z"/>
	<path class="st80" d="M256.5,51.5c1,0,2,1,3,3s1,5,2,7s2,4,2,5s2,3,2,3l3,2l3-1l1.74-2.32l-2.74-0.68c0,0-2,0-3,0s-2-1-2-1l-1-8
		c0,0-2-4-2-5s-6-7-6-7s-2-3-3-3v2C253.5,45.5,255.5,51.5,256.5,51.5z"/>
	<path class="st81" d="M246.5,76.5c-53-27-106-33-106-33l-10,4c71,9,126,42,126,42c-20-73-37-70-37-70
		C247.5,52.5,246.5,76.5,246.5,76.5z"/>
	<path class="st82" d="M161.5,44.5c14,0,80,26,81,27s3-17-26-53c0,0-45-1-72,21C144.5,39.5,147.5,44.5,161.5,44.5z M214.5,21.5
		l1.6,2.23c0.9-0.15,1.4-0.23,1.4-0.23s-0.5,0.08-1.4,0.23l3.4,4.77c0,0,3,2-3,2s-23,4-27,5s-6,1-7,2c-0.95,0.95-0.98,1.9,5.03,1.99
		l5.97-1.99l-5.97,1.99c0.31,0,0.63,0.01,0.97,0.01c7,0,36,11,36,11s-0.7-2.34-1.54-5.1l-4.46-3.9l4.46,3.9
		c-0.89-2.94-1.94-6.35-2.46-7.9c-0.31-0.93-0.4-1.65-0.33-2.22c-1.03-1.14-1.67-1.78-1.67-1.78s0.64,0.64,1.67,1.78
		c0.17-1.28,1.26-1.78,3.33-1.78c3,0,13,22,13,22s4.05,10.54-0.99,8.98c0.03,0.68,0.03,1.35-0.01,2.02
		c0.04-0.67,0.04-1.34,0.01-2.02c-0.56-0.17-1.22-0.48-2.01-0.98c-8-5-63-21-63-21c-5.06,0-7.81-1.28-9.3-2.55
		c-0.4,0.51-0.64,1.03-0.7,1.55c0.06-0.52,0.3-1.03,0.7-1.55c-1.45-1.23-1.7-2.45-1.7-2.45C169.5,25.5,214.5,21.5,214.5,21.5z
		 M215.5,44.5c0,0-3-1-6-2s-4-3-5-3s-1-3-1-3l2-2h8l3,4l-2,3L215.5,44.5z"/>
	<path class="st83" d="M161.2,39.95c5.89-7.61,46.77-14.85,54.89-16.22l-1.6-2.23c0,0-45,4-55,16
		C159.5,37.5,159.75,38.72,161.2,39.95z"/>
	<path class="st84" d="M192.5,43.5l14,5c0,0,9,4,10,4s10,4,10,4s5,3,4,1s-4-9-4-9l-3.54-3.1c0.84,2.76,1.54,5.1,1.54,5.1
		s-29-11-36-11c-0.35,0-0.66,0-0.97-0.01l-3.03,1.01L192.5,43.5z"/>
	<path class="st85" d="M236.5,55.5c0,0-10-22-13-22c-2.07,0-3.16,0.5-3.33,1.78c4.2,4.63,14.87,17.52,15.34,29.2
		C240.55,66.04,236.5,55.5,236.5,55.5z"/>
	<path class="st86" d="M161.2,39.95c1.49,1.27,4.24,2.55,9.3,2.55c0,0,55,16,63,21c0.79,0.5,1.46,0.81,2.01,0.98
		c-0.47-11.68-11.15-24.57-15.34-29.2c-0.07,0.58,0.02,1.29,0.33,2.22c0.52,1.55,1.56,4.96,2.46,7.9l3.54,3.1c0,0,3,7,4,9s-4-1-4-1
		s-9-4-10-4s-10-4-10-4l-14-5l-8-3l3.03-1.01c-6.01-0.09-5.98-1.04-5.03-1.99c1-1,3-1,7-2s21-5,27-5s3-2,3-2l-3.4-4.77
		C207.97,25.11,167.09,32.34,161.2,39.95z"/>
	<path class="st87" d="M213.5,34.5h-8l-2,2c0,0,0,3,1,3s2,2,5,3s6,2,6,2l-1-3l2-3L213.5,34.5z M210.5,40.5c0,0-2-1-3-3s0-1,0-1h4
		l2,2L210.5,40.5z"/>
	<path class="st30" d="M207.5,36.5c0,0-1-1,0,1s3,3,3,3l3-2l-2-2H207.5z"/>
</g>
</svg>
